# 3ds Max Wavefront OBJ Exporter v0.99 - (c)2007 guruware
# File Created: 15.10.2022 00:50:45

mtllib Floor.mtl

#
# object Floor
#

v  14.4102 0.0000 -7.4586
v  125.5898 0.0000 -7.4586
v  125.5898 0.0000 -132.5414
v  14.4102 0.0000 -132.5414
v  0.0000 2.1800 -0.0000
v  2.5430 2.1800 -2.5430
v  3.8463 2.1800 -11.1994
v  2.5430 2.1800 -137.4570
v  3.8463 2.1800 -128.8006
v  0.0000 2.1800 -140.0000
v  140.0000 2.1800 -0.0000
v  137.4570 2.1800 -2.5430
v  128.8006 2.1800 -3.8463
v  11.1994 2.1800 -3.8463
v  140.0000 2.1800 -140.0000
v  137.4570 2.1800 -137.4570
v  136.1537 2.1800 -128.8006
v  136.1537 2.1800 -11.1994
v  11.1994 2.1800 -136.1537
v  128.8006 2.1800 -136.1537
v  7.4586 0.0000 -125.5898
v  7.4586 0.0000 -14.4102
v  132.5414 0.0000 -125.5898
v  132.5414 0.0000 -14.4102
# 24 vertices

vn 0.0791 0.9593 -0.2710
vn -0.0791 0.9593 -0.2710
vn -0.0791 0.9593 0.2710
vn 0.0791 0.9593 0.2710
vn 0.0000 1.0000 -0.0000
vn 0.1484 0.9863 -0.0715
vn 0.1484 0.9863 0.0715
vn -0.0715 0.9863 -0.1484
vn 0.0715 0.9863 -0.1484
vn -0.1484 0.9863 0.0715
vn -0.1484 0.9863 -0.0715
vn 0.0715 0.9863 0.1484
vn -0.0715 0.9863 0.1484
vn 0.2710 0.9593 0.0791
vn 0.2710 0.9593 -0.0791
vn -0.2710 0.9593 0.0791
vn -0.2710 0.9593 -0.0791
# 17 vertex normals

vt 0.1033 0.0537 0.0000
vt 0.8967 0.0537 0.0000
vt 0.8967 0.9463 0.0000
vt 0.1033 0.9463 0.0000
vt 0.0005 0.0005 0.0000
vt 0.0186 0.0186 0.0000
vt 0.0279 0.0804 0.0000
vt 0.0186 0.9814 0.0000
vt 0.0279 0.9196 0.0000
vt 0.0005 0.9995 0.0000
vt 0.9995 0.0005 0.0000
vt 0.9814 0.0186 0.0000
vt 0.9196 0.0279 0.0000
vt 0.0804 0.0279 0.0000
vt 0.9995 0.9995 0.0000
vt 0.9814 0.9814 0.0000
vt 0.9721 0.9196 0.0000
vt 0.9721 0.0804 0.0000
vt 0.0804 0.9721 0.0000
vt 0.9196 0.9721 0.0000
vt 0.0537 0.8967 0.0000
vt 0.0537 0.1033 0.0000
vt 0.9463 0.8967 0.0000
vt 0.9463 0.1033 0.0000
# 24 texture coords

o Floor
g Floor
usemtl Floor_wire_115115115
s 1
f 1/1/1 2/2/2 3/3/3 4/4/4 
s off
f 5/5/5 6/6/5 7/7/6 8/8/5 
f 7/7/6 9/9/7 8/8/5 
f 10/10/5 5/5/5 8/8/5 
f 11/11/5 12/12/5 13/13/8 6/6/5 
f 13/13/8 14/14/9 6/6/5 
f 5/5/5 11/11/5 6/6/5 
f 15/15/5 16/16/5 17/17/10 12/12/5 
f 17/17/10 18/18/11 12/12/5 
f 11/11/5 15/15/5 12/12/5 
f 10/10/5 8/8/5 19/19/12 16/16/5 
f 19/19/12 20/20/13 16/16/5 
f 15/15/5 10/10/5 16/16/5 
f 8/8/5 9/9/7 19/19/12 
f 6/6/5 14/14/9 7/7/6 
f 12/12/5 18/18/11 13/13/8 
f 16/16/5 20/20/13 17/17/10 
f 21/21/14 9/9/7 7/7/6 22/22/15 
f 4/4/4 19/19/12 9/9/7 21/21/14 
f 3/3/3 20/20/13 19/19/12 4/4/4 
f 23/23/16 17/17/10 20/20/13 3/3/3 
f 24/24/17 18/18/11 17/17/10 23/23/16 
f 2/2/2 13/13/8 18/18/11 24/24/17 
f 1/1/1 14/14/9 13/13/8 2/2/2 
f 22/22/15 7/7/6 14/14/9 1/1/1 
s 1
f 24/24/17 23/23/16 3/3/3 2/2/2 
f 21/21/14 22/22/15 1/1/1 4/4/4 
# 15 polygons - 12 triangles

