# 3ds Max Wavefront OBJ Exporter v0.99 - (c)2007 guruware
# File Created: 15.10.2022 23:53:15

mtllib Bedroom_Seperator.mtl

#
# object Bedroom_Seperator
#

v  16.4871 135.4547 -6.9871
v  16.4871 136.8240 -2.2315
v  0.0000 136.8240 -2.2315
v  0.0000 135.4547 -6.9871
v  16.4871 128.7218 -9.2708
v  16.4871 134.1256 -6.9793
v  0.0000 134.1256 -6.9793
v  0.0000 128.7218 -9.2708
v  16.4871 141.2252 -0.0000
v  0.0000 141.2252 -0.0000
v  16.4871 127.7062 -10.3589
v  0.0000 127.7062 -10.3589
v  16.4871 127.4294 -11.4501
v  0.0000 127.4294 -11.4501
v  16.4871 20.3096 -16.6301
v  0.0000 20.3096 -16.6301
v  16.4871 5.6263 -3.0568
v  16.4871 8.3713 -9.3866
v  0.0000 8.3713 -9.3866
v  0.0000 5.6263 -3.0568
v  16.4871 9.7005 -9.3788
v  16.4871 15.1043 -10.2175
v  0.0000 15.1043 -10.2175
v  0.0000 9.7005 -9.3788
v  16.4871 18.2531 -12.7713
v  0.0000 18.2531 -12.7713
v  16.4871 0.0000 -3.0059
v  0.0000 0.0000 -3.0059
v  16.4871 16.1199 -11.3056
v  0.0000 16.1199 -11.3056
v  16.4871 127.4475 -25.7250
v  16.4871 127.7062 -25.6965
v  16.4871 128.7218 -25.6754
v  16.4871 134.1256 -25.6309
v  16.4871 135.4547 -25.6310
v  16.4871 136.8240 -25.1924
v  16.4871 141.2252 -25.1914
v  0.0000 141.2252 -25.1914
v  0.0000 136.8240 -25.1924
v  0.0000 135.4547 -25.6310
v  0.0000 134.1256 -25.6309
v  0.0000 128.7218 -25.6754
v  0.0000 127.7062 -25.6965
v  0.0000 127.4475 -25.7250
v  0.0000 20.3277 -25.8072
v  0.0000 18.2531 -25.7250
v  0.0000 16.1199 -25.6965
v  0.0000 15.1043 -25.6754
v  0.0000 9.7005 -25.6309
v  0.0000 8.3713 -25.6310
v  0.0000 5.6263 -25.1924
v  0.0000 0.0000 -25.1914
v  16.4871 0.0000 -25.1914
v  16.4871 5.6263 -25.1924
v  16.4871 8.3713 -25.6310
v  16.4871 9.7005 -25.6309
v  16.4871 15.1043 -25.6754
v  16.4871 16.1199 -25.6965
v  16.4871 18.2531 -25.7250
v  16.4871 20.3277 -25.8072
# 60 vertices

vn 0.8709 -0.2944 0.3935
vn 0.6273 -0.6001 0.4963
vn -0.6273 -0.6001 0.4963
vn -0.8709 -0.2944 0.3935
vn 0.6632 -0.4291 0.6132
vn 0.6644 -0.1467 0.7328
vn -0.6644 -0.1467 0.7328
vn -0.6632 -0.4291 0.6132
vn 0.5742 -0.3703 0.7302
vn -0.5742 -0.3703 0.7302
vn 0.6552 -0.6631 0.3620
vn -0.6552 -0.6631 0.3620
vn 0.8680 -0.3142 0.3844
vn -0.8680 -0.3142 0.3844
vn 0.8494 0.2605 0.4589
vn -0.8494 0.2605 0.4589
vn 0.6026 0.4408 0.6652
vn 0.8544 0.2838 0.4353
vn -0.8544 0.2838 0.4353
vn -0.6026 0.4408 0.6652
vn 0.6896 0.0536 0.7222
vn 0.6405 0.3594 0.6787
vn -0.6405 0.3594 0.6787
vn -0.6896 0.0536 0.7222
vn 0.6574 0.5619 0.5021
vn -0.6574 0.5619 0.5021
vn 0.7051 0.0064 0.7091
vn -0.7051 0.0064 0.7091
vn 0.7324 0.4443 0.5159
vn -0.7324 0.4443 0.5159
vn 1.0000 0.0000 -0.0000
vn -1.0000 0.0000 -0.0000
# 32 vertex normals

vt 0.6726 0.3560 0.0000
vt 0.7068 0.3560 0.0000
vt 0.7068 0.4700 0.0000
vt 0.6726 0.4700 0.0000
vt 0.3658 0.6824 0.0000
vt 0.4064 0.6824 0.0000
vt 0.4064 0.7963 0.0000
vt 0.3658 0.7963 0.0000
vt 0.7067 0.2167 0.0000
vt 0.6726 0.2167 0.0000
vt 0.6726 0.1028 0.0000
vt 0.7067 0.1028 0.0000
vt 0.4155 0.6824 0.0000
vt 0.4155 0.7963 0.0000
vt 0.4223 0.5363 0.0000
vt 0.4326 0.5363 0.0000
vt 0.4326 0.6502 0.0000
vt 0.4223 0.6502 0.0000
vt 0.4145 0.5363 0.0000
vt 0.4145 0.6502 0.0000
vt 0.6697 0.1028 0.0000
vt 0.6697 0.8440 0.0000
vt 0.5557 0.8440 0.0000
vt 0.5557 0.1028 0.0000
vt 0.6142 0.9785 0.0000
vt 0.6142 0.9308 0.0000
vt 0.7281 0.9308 0.0000
vt 0.7281 0.9785 0.0000
vt 0.7476 0.0097 0.0000
vt 0.7476 0.0475 0.0000
vt 0.6337 0.0475 0.0000
vt 0.6337 0.0097 0.0000
vt 0.4194 0.6629 0.0000
vt 0.4496 0.6629 0.0000
vt 0.4496 0.7768 0.0000
vt 0.4194 0.7768 0.0000
vt 0.7115 0.3434 0.0000
vt 0.6726 0.3434 0.0000
vt 0.6726 0.2294 0.0000
vt 0.7115 0.2294 0.0000
vt 0.7476 0.0005 0.0000
vt 0.6337 0.0005 0.0000
vt 0.9995 0.1145 0.0000
vt 0.9892 0.1145 0.0000
vt 0.9892 0.0005 0.0000
vt 0.9995 0.0005 0.0000
vt 0.4340 0.5363 0.0000
vt 0.4519 0.5363 0.0000
vt 0.4519 0.6502 0.0000
vt 0.4340 0.6502 0.0000
vt 0.4540 0.0957 0.0000
vt 0.4542 0.0939 0.0000
vt 0.5602 0.0939 0.0000
vt 0.5527 0.0959 0.0000
vt 0.4544 0.0869 0.0000
vt 0.5677 0.0869 0.0000
vt 0.4547 0.0496 0.0000
vt 0.5836 0.0496 0.0000
vt 0.4547 0.0404 0.0000
vt 0.5835 0.0404 0.0000
vt 0.4577 0.0309 0.0000
vt 0.6164 0.0309 0.0000
vt 0.4577 0.0005 0.0000
vt 0.6318 0.0005 0.0000
vt 0.9831 0.0005 0.0000
vt 0.9831 0.0309 0.0000
vt 0.8244 0.0309 0.0000
vt 0.8090 0.0005 0.0000
vt 0.9862 0.0404 0.0000
vt 0.8573 0.0404 0.0000
vt 0.9862 0.0496 0.0000
vt 0.8572 0.0496 0.0000
vt 0.9865 0.0869 0.0000
vt 0.8731 0.0869 0.0000
vt 0.9866 0.0939 0.0000
vt 0.8806 0.0939 0.0000
vt 0.9868 0.0957 0.0000
vt 0.8882 0.0958 0.0000
vt 0.9874 0.8361 0.0000
vt 0.9240 0.8362 0.0000
vt 0.9868 0.8504 0.0000
vt 0.8973 0.8504 0.0000
vt 0.9866 0.8652 0.0000
vt 0.8872 0.8652 0.0000
vt 0.9865 0.8722 0.0000
vt 0.8796 0.8722 0.0000
vt 0.9862 0.9095 0.0000
vt 0.8739 0.9095 0.0000
vt 0.9862 0.9187 0.0000
vt 0.8739 0.9187 0.0000
vt 0.9831 0.9377 0.0000
vt 0.8302 0.9377 0.0000
vt 0.9831 0.9766 0.0000
vt 0.8298 0.9766 0.0000
vt 0.4577 0.9766 0.0000
vt 0.4577 0.9377 0.0000
vt 0.6107 0.9377 0.0000
vt 0.6110 0.9766 0.0000
vt 0.4547 0.9187 0.0000
vt 0.5669 0.9187 0.0000
vt 0.4547 0.9095 0.0000
vt 0.5670 0.9095 0.0000
vt 0.4544 0.8722 0.0000
vt 0.5612 0.8722 0.0000
vt 0.4542 0.8652 0.0000
vt 0.5537 0.8652 0.0000
vt 0.4540 0.8504 0.0000
vt 0.5436 0.8504 0.0000
vt 0.4535 0.8361 0.0000
vt 0.5169 0.8362 0.0000
# 110 texture coords

o Bedroom_Seperator
g Bedroom_Seperator
usemtl wire_115115115
s off
f 1/1/1 2/2/2 3/3/3 4/4/4 
f 5/5/5 6/6/6 7/7/7 8/8/8 
f 2/9/2 9/10/9 10/11/10 3/12/3 
f 6/6/6 1/13/1 4/14/4 7/7/7 
f 11/15/11 5/16/5 8/17/8 12/18/12 
f 13/19/13 11/15/11 12/18/12 14/20/14 
f 15/21/15 13/22/13 14/23/14 16/24/16 
f 17/25/17 18/26/18 19/27/19 20/28/20 
f 21/29/21 22/30/22 23/31/23 24/32/24 
f 25/33/25 15/34/15 16/35/16 26/36/26 
f 27/37/27 17/38/17 20/39/20 28/40/28 
f 18/41/18 21/29/21 24/32/24 19/42/19 
f 22/43/22 29/44/29 30/45/30 23/46/23 
f 29/47/29 25/48/25 26/49/26 30/50/30 
f 31/51/31 32/52/31 11/53/11 13/54/13 
f 32/52/31 33/55/31 5/56/5 11/53/11 
f 33/55/31 34/57/31 6/58/6 5/56/5 
f 34/57/31 35/59/31 1/60/1 6/58/6 
f 35/59/31 36/61/31 2/62/2 1/60/1 
f 36/61/31 37/63/31 9/64/9 2/62/2 
f 38/65/32 39/66/32 3/67/3 10/68/10 
f 39/66/32 40/69/32 4/70/4 3/67/3 
f 40/69/32 41/71/32 7/72/7 4/70/4 
f 41/71/32 42/73/32 8/74/8 7/72/7 
f 42/73/32 43/75/32 12/76/12 8/74/8 
f 43/75/32 44/77/32 14/78/14 12/76/12 
f 44/77/32 45/79/32 16/80/16 14/78/14 
f 45/79/32 46/81/32 26/82/26 16/80/16 
f 46/81/32 47/83/32 30/84/30 26/82/26 
f 47/83/32 48/85/32 23/86/23 30/84/30 
f 48/85/32 49/87/32 24/88/24 23/86/23 
f 49/87/32 50/89/32 19/90/19 24/88/24 
f 50/89/32 51/91/32 20/92/20 19/90/19 
f 51/91/32 52/93/32 28/94/28 20/92/20 
f 53/95/31 54/96/31 17/97/17 27/98/27 
f 54/96/31 55/99/31 18/100/18 17/97/17 
f 55/99/31 56/101/31 21/102/21 18/100/18 
f 56/101/31 57/103/31 22/104/22 21/102/21 
f 57/103/31 58/105/31 29/106/29 22/104/22 
f 58/105/31 59/107/31 25/108/25 29/106/29 
f 59/107/31 60/109/31 15/110/15 25/108/25 
f 60/109/31 31/51/31 13/54/13 15/110/15 
# 42 polygons

