# 3ds Max Wavefront OBJ Exporter v0.99 - (c)2007 guruware
# File Created: 15.10.2022 00:49:20

mtllib Seperator.mtl

#
# object Seperator
#

v  16.4871 135.5989 -0.0509
v  0.0000 135.5989 -0.0509
v  0.0000 114.9326 -22.6329
v  16.4871 114.9326 -22.6329
v  16.4871 113.6035 -22.6251
v  0.0000 113.6035 -22.6251
v  0.0000 108.1997 -24.9167
v  16.4871 108.1997 -24.9167
v  16.4871 106.9254 -27.4705
v  0.0000 106.9254 -27.4705
v  0.0000 103.0057 -31.7039
v  16.4871 103.0057 -31.7039
v  16.4871 140.0000 -0.0000
v  0.0000 140.0000 -0.0000
v  0.0000 107.1841 -26.0048
v  16.4871 107.1841 -26.0048
v  0.0000 37.0237 -31.7039
v  16.4871 37.0237 -31.7039
v  16.4871 25.0674 -22.6329
v  0.0000 25.0674 -22.6329
v  0.0000 4.4012 -0.0509
v  16.4871 4.4012 -0.0509
v  16.4871 31.8003 -24.9167
v  0.0000 31.8003 -24.9167
v  0.0000 26.3965 -22.6251
v  16.4871 26.3965 -22.6251
v  0.0000 34.9492 -27.4705
v  16.4871 34.9492 -27.4705
v  0.0000 0.0000 -0.0000
v  16.4871 0.0000 -0.0000
v  16.4871 32.8159 -26.0048
v  0.0000 32.8159 -26.0048
v  16.4871 106.9254 -46.1671
v  16.4871 103.7832 -46.2493
v  16.4871 107.1841 -46.1386
v  16.4871 108.1997 -46.1175
v  16.4871 113.6035 -46.0730
v  16.4871 114.9326 -46.0731
v  16.4871 135.5989 -45.6345
v  16.4871 140.0000 -45.6335
v  0.0000 135.5989 -45.6345
v  0.0000 140.0000 -45.6335
v  0.0000 114.9326 -46.0731
v  0.0000 113.6035 -46.0730
v  0.0000 108.1997 -46.1175
v  0.0000 107.1841 -46.1386
v  0.0000 106.9254 -46.1671
v  0.0000 103.0057 -46.2493
v  0.0000 37.0237 -46.2493
v  0.0000 34.9492 -46.1671
v  0.0000 32.8159 -46.1386
v  0.0000 31.8003 -46.1175
v  0.0000 26.3965 -46.0730
v  0.0000 25.0674 -46.0731
v  0.0000 4.4012 -45.6345
v  0.0000 0.0000 -45.6335
v  16.4871 4.4012 -45.6345
v  16.4871 0.0000 -45.6335
v  16.4871 25.0674 -46.0731
v  16.4871 26.3965 -46.0730
v  16.4871 31.8003 -46.1175
v  16.4871 32.8159 -46.1386
v  16.4871 34.9492 -46.1671
v  16.4871 37.0237 -46.2493
# 64 vertices

vn 0.6276 -0.3179 0.7107
vn -0.6276 -0.3179 0.7107
vn -0.8108 -0.2343 0.5364
vn 0.8108 -0.2343 0.5364
vn 0.6643 -0.1467 0.7329
vn -0.6643 -0.1467 0.7329
vn -0.6632 -0.4291 0.6133
vn 0.6632 -0.4291 0.6133
vn 0.7765 -0.5644 0.2802
vn -0.7765 -0.5644 0.2802
vn -0.8092 -0.2352 0.5383
vn 0.8092 -0.2352 0.5383
vn 0.7045 -0.0082 0.7097
vn -0.7045 -0.0082 0.7097
vn -0.6484 -0.6812 0.3399
vn 0.6484 -0.6812 0.3399
vn -0.8475 0.2808 0.4504
vn 0.8475 0.2808 0.4504
vn 0.8108 0.2343 0.5364
vn -0.8108 0.2343 0.5364
vn -0.6276 0.3179 0.7107
vn 0.6276 0.3179 0.7107
vn 0.6632 0.4291 0.6133
vn -0.6632 0.4291 0.6133
vn -0.6643 0.1467 0.7329
vn 0.6643 0.1467 0.7329
vn -0.6542 0.5725 0.4943
vn 0.6542 0.5725 0.4943
vn -0.7045 0.0082 0.7097
vn 0.7045 0.0082 0.7097
vn 0.7324 0.4443 0.5159
vn -0.7324 0.4443 0.5159
vn 1.0000 0.0000 -0.0000
vn -1.0000 0.0000 -0.0000
# 34 vertex normals

vt 0.4718 0.7791 0.0000
vt 0.4718 0.6615 0.0000
vt 0.6902 0.6615 0.0000
vt 0.6902 0.7791 0.0000
vt 0.6178 0.8972 0.0000
vt 0.6178 0.7796 0.0000
vt 0.6597 0.7796 0.0000
vt 0.6597 0.8972 0.0000
vt 0.5667 0.8972 0.0000
vt 0.5667 0.7796 0.0000
vt 0.6079 0.7796 0.0000
vt 0.6079 0.8972 0.0000
vt 0.7461 0.8972 0.0000
vt 0.7461 0.7796 0.0000
vt 0.7775 0.7796 0.0000
vt 0.7775 0.8972 0.0000
vt 0.6083 0.8972 0.0000
vt 0.6083 0.7796 0.0000
vt 0.5455 0.8972 0.0000
vt 0.5455 0.7796 0.0000
vt 0.5561 0.7796 0.0000
vt 0.5561 0.8972 0.0000
vt 0.0005 0.7791 0.0000
vt 0.0005 0.6615 0.0000
vt 0.4713 0.6615 0.0000
vt 0.4713 0.7791 0.0000
vt 0.5450 0.7796 0.0000
vt 0.5450 0.8972 0.0000
vt 0.3266 0.8972 0.0000
vt 0.3266 0.7796 0.0000
vt 0.6602 0.8972 0.0000
vt 0.6602 0.7796 0.0000
vt 0.7020 0.7796 0.0000
vt 0.7020 0.8972 0.0000
vt 0.7456 0.7796 0.0000
vt 0.7456 0.8972 0.0000
vt 0.7120 0.8972 0.0000
vt 0.7120 0.7796 0.0000
vt 0.7779 0.8972 0.0000
vt 0.7779 0.7796 0.0000
vt 0.8093 0.7796 0.0000
vt 0.8093 0.8972 0.0000
vt 0.7115 0.7796 0.0000
vt 0.7115 0.8972 0.0000
vt 0.8394 0.7796 0.0000
vt 0.8394 0.8972 0.0000
vt 0.8287 0.8972 0.0000
vt 0.8287 0.7796 0.0000
vt 0.8098 0.8972 0.0000
vt 0.8098 0.7796 0.0000
vt 0.8283 0.7796 0.0000
vt 0.8283 0.8972 0.0000
vt 0.7635 0.0011 0.0000
vt 0.7635 0.1345 0.0000
vt 0.7355 0.1043 0.0000
vt 0.7411 0.0005 0.0000
vt 0.7653 0.0013 0.0000
vt 0.7653 0.1450 0.0000
vt 0.7726 0.0014 0.0000
vt 0.7726 0.1527 0.0000
vt 0.8111 0.0018 0.0000
vt 0.8111 0.1691 0.0000
vt 0.8206 0.0018 0.0000
vt 0.8206 0.1690 0.0000
vt 0.9681 0.0049 0.0000
vt 0.9681 0.3302 0.0000
vt 0.9995 0.0049 0.0000
vt 0.9995 0.3305 0.0000
vt 0.0319 0.3354 0.0000
vt 0.0319 0.6606 0.0000
vt 0.0005 0.6610 0.0000
vt 0.0005 0.3354 0.0000
vt 0.1794 0.3322 0.0000
vt 0.1794 0.4995 0.0000
vt 0.1889 0.3322 0.0000
vt 0.1889 0.4996 0.0000
vt 0.2274 0.3319 0.0000
vt 0.2274 0.4832 0.0000
vt 0.2347 0.3318 0.0000
vt 0.2347 0.4754 0.0000
vt 0.2365 0.3316 0.0000
vt 0.2365 0.4650 0.0000
vt 0.2645 0.3310 0.0000
vt 0.2645 0.4348 0.0000
vt 0.7353 0.3310 0.0000
vt 0.7353 0.4348 0.0000
vt 0.7501 0.3316 0.0000
vt 0.7501 0.4650 0.0000
vt 0.7653 0.3318 0.0000
vt 0.7653 0.4754 0.0000
vt 0.7726 0.3319 0.0000
vt 0.7726 0.4832 0.0000
vt 0.8111 0.3322 0.0000
vt 0.8111 0.4996 0.0000
vt 0.8206 0.3322 0.0000
vt 0.8206 0.4995 0.0000
vt 0.9681 0.3354 0.0000
vt 0.9681 0.6606 0.0000
vt 0.9995 0.3354 0.0000
vt 0.9995 0.6610 0.0000
vt 0.0319 0.0049 0.0000
vt 0.0319 0.3302 0.0000
vt 0.0005 0.3305 0.0000
vt 0.0005 0.0049 0.0000
vt 0.1794 0.0018 0.0000
vt 0.1794 0.1690 0.0000
vt 0.1889 0.0018 0.0000
vt 0.1889 0.1691 0.0000
vt 0.2274 0.0014 0.0000
vt 0.2274 0.1527 0.0000
vt 0.2347 0.0013 0.0000
vt 0.2347 0.1450 0.0000
vt 0.2499 0.0011 0.0000
vt 0.2499 0.1345 0.0000
vt 0.2647 0.0005 0.0000
vt 0.2647 0.1043 0.0000
# 116 texture coords

o Seperator
g Seperator
usemtl Seperator_UV1_defaultMat
s 1
f 1/1/1 2/2/2 3/3/3 4/4/4 
f 5/5/5 6/6/6 7/7/7 8/8/8 
f 9/9/9 10/10/10 11/11/11 12/12/12 
f 13/13/13 14/14/14 2/15/2 1/16/1 
f 4/17/4 3/18/3 6/6/6 5/5/5 
f 8/19/8 7/20/7 15/21/15 16/22/16 
f 16/22/16 15/21/15 10/10/10 9/9/9 
f 12/23/12 11/24/11 17/25/17 18/26/18 
f 19/27/19 20/28/20 21/29/21 22/30/22 
f 23/31/23 24/32/24 25/33/25 26/34/26 
f 18/35/18 17/36/17 27/37/27 28/38/28 
f 22/39/22 21/40/21 29/41/29 30/42/30 
f 26/34/26 25/33/25 20/43/20 19/44/19 
f 31/45/31 32/46/32 24/47/24 23/48/23 
f 28/49/28 27/50/27 32/51/32 31/52/31 
f 33/53/33 9/54/9 12/55/12 34/56/33 
f 35/57/33 16/58/16 9/54/9 33/53/33 
f 36/59/33 8/60/8 16/58/16 35/57/33 
f 37/61/33 5/62/5 8/60/8 36/59/33 
f 38/63/33 4/64/4 5/62/5 37/61/33 
f 39/65/33 1/66/1 4/64/4 38/63/33 
f 40/67/33 13/68/13 1/66/1 39/65/33 
f 41/69/34 2/70/2 14/71/14 42/72/34 
f 41/69/34 43/73/34 3/74/3 2/70/2 
f 44/75/34 6/76/6 3/74/3 43/73/34 
f 44/75/34 45/77/34 7/78/7 6/76/6 
f 45/77/34 46/79/34 15/80/15 7/78/7 
f 46/79/34 47/81/34 10/82/10 15/80/15 
f 47/81/34 48/83/34 11/84/11 10/82/10 
f 49/85/34 17/86/17 11/84/11 48/83/34 
f 50/87/34 27/88/27 17/86/17 49/85/34 
f 51/89/34 32/90/32 27/88/27 50/87/34 
f 52/91/34 24/92/24 32/90/32 51/89/34 
f 53/93/34 25/94/25 24/92/24 52/91/34 
f 54/95/34 20/96/20 25/94/25 53/93/34 
f 55/97/34 21/98/21 20/96/20 54/95/34 
f 56/99/34 29/100/29 21/98/21 55/97/34 
f 57/101/33 22/102/22 30/103/30 58/104/33 
f 57/101/33 59/105/33 19/106/19 22/102/22 
f 60/107/33 26/108/26 19/106/19 59/105/33 
f 60/107/33 61/109/33 23/110/23 26/108/26 
f 61/109/33 62/111/33 31/112/31 23/110/23 
f 62/111/33 63/113/33 28/114/28 31/112/31 
f 63/113/33 64/115/33 18/116/18 28/114/28 
f 64/115/33 34/56/33 12/55/12 18/116/18 
# 45 polygons

