# 3ds Max Wavefront OBJ Exporter v0.99 - (c)2007 guruware
# File Created: 15.10.2022 00:48:19

mtllib Seperator_Corner.mtl

#
# object Seperator_Corner
#

v  0.0000 70.0147 -44.7015
v  46.2365 70.0147 -0.0001
v  46.2365 103.0057 -0.0001
v  0.0000 103.0057 -44.7015
v  0.0000 114.9326 -35.6305
v  37.1655 114.9326 -0.0001
v  14.5836 135.5989 -0.0001
v  0.0000 135.5989 -13.0485
v  0.0000 108.1997 -37.9143
v  39.4493 108.1997 -0.0001
v  37.1578 113.6035 -0.0001
v  0.0000 113.6035 -35.6227
v  42.0032 106.9254 -0.0001
v  0.0000 106.9254 -40.4681
v  14.5326 140.0000 -0.0001
v  0.0000 140.0000 -12.9976
v  0.0000 107.1841 -39.0024
v  40.5374 107.1841 -0.0001
v  0.0000 37.0237 -44.7015
v  46.2365 37.0237 -0.0001
v  0.0000 4.4012 -13.0485
v  14.5836 4.4012 -0.0001
v  37.1655 25.0674 -0.0001
v  0.0000 25.0674 -35.6305
v  0.0000 26.3965 -35.6227
v  37.1578 26.3965 -0.0001
v  39.4493 31.8003 -0.0001
v  0.0000 31.8003 -37.9143
v  0.0000 34.9492 -40.4681
v  42.0032 34.9492 -0.0001
v  0.0000 0.0000 -12.9976
v  14.5326 0.0000 -0.0001
v  40.5374 32.8159 -0.0001
v  0.0000 32.8159 -39.0024
v  60.7820 70.7922 -0.0001
v  60.7820 103.7832 -0.0001
v  60.6998 106.9254 -0.0001
v  60.6713 107.1841 -0.0001
v  60.6501 108.1997 -0.0001
v  60.6056 113.6035 -0.0001
v  60.6058 114.9326 -0.0001
v  60.1672 135.5989 -0.0001
v  60.1662 140.0000 -0.0001
v  0.0000 140.0000 -58.6311
v  0.0000 135.5989 -58.6321
v  0.0000 114.9326 -59.0707
v  0.0000 113.6035 -59.0706
v  0.0000 108.1997 -59.1151
v  0.0000 107.1841 -59.1362
v  0.0000 106.9254 -59.1647
v  0.0000 103.0057 -59.2469
v  0.0000 70.0147 -59.2469
v  0.0000 37.0237 -59.2469
v  0.0000 34.9492 -59.1647
v  0.0000 32.8159 -59.1362
v  0.0000 31.8003 -59.1151
v  0.0000 26.3965 -59.0706
v  0.0000 25.0674 -59.0707
v  0.0000 4.4012 -58.6321
v  0.0000 0.0000 -58.6311
v  60.1662 0.0000 -0.0001
v  60.1672 4.4012 -0.0001
v  60.6058 25.0674 -0.0001
v  60.6056 26.3965 -0.0000
v  60.6501 31.8004 -0.0000
v  60.6713 32.8159 -0.0001
v  60.6998 34.9492 -0.0001
v  60.7820 37.0237 -0.0000
# 68 vertices

vn -0.9206 0.0000 0.3905
vn -0.3749 0.0000 0.9271
vn -0.2785 -0.1025 0.9550
vn -0.9509 -0.1074 0.2903
vn -0.9509 -0.1073 0.2904
vn -0.2758 -0.1012 0.9559
vn -0.4062 -0.2361 0.8827
vn -0.8531 -0.2554 0.4549
vn -0.8707 -0.3060 0.3850
vn -0.3704 -0.2963 0.8804
vn -0.4089 -0.0909 0.9080
vn -0.8983 -0.0949 0.4291
vn -0.2337 -0.3615 0.9026
vn -0.8960 -0.3739 0.2395
vn -0.3591 -0.0042 0.9333
vn -0.9117 -0.0048 0.4108
vn -0.7550 -0.6203 0.2126
vn -0.2063 -0.6157 0.7605
vn -0.9598 0.1248 0.2513
vn -0.2413 0.1190 0.9631
vn -0.8531 0.2554 0.4549
vn -0.4062 0.2361 0.8827
vn -0.2758 0.1012 0.9559
vn -0.9509 0.1073 0.2904
vn -0.8983 0.0949 0.4291
vn -0.4089 0.0909 0.9080
vn -0.3704 0.2963 0.8804
vn -0.8707 0.3060 0.3850
vn -0.8251 0.4627 0.3242
vn -0.3146 0.4539 0.8337
vn -0.9117 0.0048 0.4108
vn -0.3591 0.0042 0.9333
vn -0.3158 0.2549 0.9139
vn -0.9065 0.2656 0.3283
vn 0.0000 0.0000 1.0000
vn -1.0000 0.0000 0.0000
# 36 vertex normals

vt 0.1414 0.5030 0.0000
vt 0.5622 0.4942 0.0000
vt 0.5604 0.7042 0.0000
vt 0.1401 0.7146 0.0000
vt 0.1781 0.8043 0.0000
vt 0.5165 0.8018 0.0000
vt 0.4054 0.9630 0.0000
vt 0.2906 0.9680 0.0000
vt 0.1698 0.7602 0.0000
vt 0.5271 0.7543 0.0000
vt 0.5166 0.7928 0.0000
vt 0.1785 0.7960 0.0000
vt 0.5397 0.7364 0.0000
vt 0.1583 0.7457 0.0000
vt 0.4082 0.9899 0.0000
vt 0.2887 0.9947 0.0000
vt 0.1646 0.7524 0.0000
vt 0.5327 0.7433 0.0000
vt 0.1384 0.2876 0.0000
vt 0.5626 0.2777 0.0000
vt 0.2847 0.0300 0.0000
vt 0.4035 0.0328 0.0000
vt 0.5172 0.1925 0.0000
vt 0.1793 0.1975 0.0000
vt 0.1800 0.2057 0.0000
vt 0.5171 0.2006 0.0000
vt 0.5273 0.2358 0.0000
vt 0.1702 0.2427 0.0000
vt 0.1586 0.2655 0.0000
vt 0.5407 0.2573 0.0000
vt 0.2875 0.0000 0.0000
vt 0.4068 0.0067 0.0000
vt 0.5329 0.2432 0.0000
vt 0.1652 0.2505 0.0000
vt 0.6520 0.4939 0.0000
vt 0.6606 0.7032 0.0000
vt 0.5647 0.7107 0.0000
vt 0.6344 0.7260 0.0000
vt 0.6350 0.7525 0.0000
vt 0.5404 0.7420 0.0000
vt 0.6344 0.7568 0.0000
vt 0.6350 0.7653 0.0000
vt 0.6486 0.7994 0.0000
vt 0.6513 0.8070 0.0000
vt 0.6710 0.9310 0.0000
vt 0.6755 0.9587 0.0000
vt 0.0156 0.9514 0.0000
vt 0.0199 0.9238 0.0000
vt 0.0292 0.7990 0.0000
vt 0.0296 0.7911 0.0000
vt 0.0279 0.7600 0.0000
vt 0.0271 0.7538 0.0000
vt 0.0267 0.7522 0.0000
vt 0.1547 0.7505 0.0000
vt 0.0213 0.7282 0.0000
vt 0.1205 0.7226 0.0000
vt 0.0435 0.7126 0.0000
vt 0.0547 0.5008 0.0000
vt 0.0478 0.2985 0.0000
vt 0.0470 0.2862 0.0000
vt 0.0441 0.2731 0.0000
vt 0.0428 0.2669 0.0000
vt 0.0359 0.2336 0.0000
vt 0.0343 0.2255 0.0000
vt 0.0077 0.1003 0.0000
vt 0.0000 0.0736 0.0000
vt 0.2791 0.0023 0.0000
vt 0.6839 0.0529 0.0000
vt 0.6797 0.0800 0.0000
vt 0.6650 0.2072 0.0000
vt 0.6640 0.2156 0.0000
vt 0.6593 0.2499 0.0000
vt 0.6583 0.2564 0.0000
vt 0.6557 0.2700 0.0000
vt 0.6548 0.2830 0.0000
# 75 texture coords

o Seperator_Corner
g Seperator_Corner
usemtl Seperator_Corner_UV_wire_115115115
s 1
f 1/1/1 2/2/2 3/3/3 
f 3/3/3 4/4/4 1/1/1 
f 5/5/5 6/6/6 7/7/7 
f 7/7/7 8/8/8 5/5/5 
f 9/9/9 10/10/10 11/11/11 
f 11/11/11 12/12/12 9/9/9 
f 4/4/4 3/3/3 13/13/13 
f 13/13/13 14/14/14 4/4/4 
f 8/8/8 7/7/7 15/15/15 
f 15/15/15 16/16/16 8/8/8 
f 12/12/12 11/11/11 6/6/6 
f 6/6/6 5/5/5 12/12/12 
f 17/17/17 18/18/18 10/10/10 
f 10/10/10 9/9/9 17/17/17 
f 14/14/14 13/13/13 18/18/18 
f 18/18/18 17/17/17 14/14/14 
f 19/19/19 20/20/20 2/2/2 
f 2/2/2 1/1/1 19/19/19 
f 21/21/21 22/22/22 23/23/23 
f 23/23/23 24/24/24 21/21/21 
f 25/25/25 26/26/26 27/27/27 
f 27/27/27 28/28/28 25/25/25 
f 29/29/29 30/30/30 20/20/20 
f 20/20/20 19/19/19 29/29/29 
f 31/31/31 32/32/32 22/22/22 
f 22/22/22 21/21/21 31/31/31 
f 24/24/24 23/23/23 26/26/26 
f 26/26/26 25/25/25 24/24/24 
f 28/28/28 27/27/27 33/33/33 
f 33/33/33 34/34/34 28/28/28 
f 34/34/34 33/33/33 30/30/30 
f 30/30/30 29/29/29 34/34/34 
f 2/2/2 35/35/35 36/36/35 
f 36/36/35 3/3/3 2/2/2 
f 3/37/3 36/38/35 37/39/35 
f 37/39/35 13/40/13 3/37/3 
f 13/40/13 37/39/35 38/41/35 
f 38/41/35 18/18/18 13/40/13 
f 18/18/18 38/41/35 39/42/35 
f 39/42/35 10/10/10 18/18/18 
f 10/10/10 39/42/35 40/43/35 
f 40/43/35 11/11/11 10/10/10 
f 11/11/11 40/43/35 41/44/35 
f 41/44/35 6/6/6 11/11/11 
f 6/6/6 41/44/35 42/45/35 
f 42/45/35 7/7/7 6/6/6 
f 7/7/7 42/45/35 43/46/35 
f 43/46/35 15/15/15 7/7/7 
f 16/16/16 44/47/36 45/48/36 
f 45/48/36 8/8/8 16/16/16 
f 8/8/8 45/48/36 46/49/36 
f 46/49/36 5/5/5 8/8/8 
f 5/5/5 46/49/36 47/50/36 
f 47/50/36 12/12/12 5/5/5 
f 12/12/12 47/50/36 48/51/36 
f 48/51/36 9/9/9 12/12/12 
f 9/9/9 48/51/36 49/52/36 
f 49/52/36 17/17/17 9/9/9 
f 17/17/17 49/52/36 50/53/36 
f 50/53/36 14/54/14 17/17/17 
f 14/54/14 50/53/36 51/55/36 
f 51/55/36 4/56/4 14/54/14 
f 4/4/4 51/57/36 52/58/36 
f 52/58/36 1/1/1 4/4/4 
f 1/1/1 52/58/36 53/59/36 
f 53/59/36 19/19/19 1/1/1 
f 19/19/19 53/59/36 54/60/36 
f 54/60/36 29/29/29 19/19/19 
f 29/29/29 54/60/36 55/61/36 
f 55/61/36 34/34/34 29/29/29 
f 34/34/34 55/61/36 56/62/36 
f 56/62/36 28/28/28 34/34/34 
f 28/28/28 56/62/36 57/63/36 
f 57/63/36 25/25/25 28/28/28 
f 25/25/25 57/63/36 58/64/36 
f 58/64/36 24/24/24 25/25/25 
f 24/24/24 58/64/36 59/65/36 
f 59/65/36 21/21/21 24/24/24 
f 21/21/21 59/65/36 60/66/36 
f 60/66/36 31/67/31 21/21/21 
f 32/32/32 61/68/35 62/69/35 
f 62/69/35 22/22/22 32/32/32 
f 22/22/22 62/69/35 63/70/35 
f 63/70/35 23/23/23 22/22/22 
f 23/23/23 63/70/35 64/71/35 
f 64/71/35 26/26/26 23/23/23 
f 26/26/26 64/71/35 65/72/35 
f 65/72/35 27/27/27 26/26/26 
f 27/27/27 65/72/35 66/73/35 
f 66/73/35 33/33/33 27/27/27 
f 33/33/33 66/73/35 67/74/35 
f 67/74/35 30/30/30 33/33/33 
f 30/30/30 67/74/35 68/75/35 
f 68/75/35 20/20/20 30/30/30 
f 20/20/20 68/75/35 35/35/35 
f 35/35/35 2/2/2 20/20/20 
# 0 polygons - 96 triangles

