# File produced by Open Asset Import Library (http://www.assimp.sf.net)
# (assimp v3.1.202510665)

mtllib Bin_UV.mtl

# vertex positions
v 15.039700 2.353100 0.000000
v 10.634701 2.353100 -10.634701
v 10.634701 27.715700 -10.634701
v 15.039700 27.715700 0.000000
v 0.000000 2.353100 -15.039700
v 0.000000 27.715700 -15.039700
v -10.634701 2.353100 -10.634701
v -10.634701 27.715700 -10.634701
v -15.039700 2.353100 0.000000
v -15.039700 27.715700 0.000000
v -10.634701 2.353100 10.634701
v -10.634701 27.715700 10.634701
v 0.000000 2.353100 15.039700
v 0.000000 27.715700 15.039700
v 10.634701 2.353100 10.634701
v 10.634701 27.715700 10.634701
v 15.039700 30.192900 0.000000
v 10.634701 30.192900 -10.634701
v 7.346400 34.416000 -7.346400
v 10.389400 34.416000 0.000000
v 0.000000 30.192900 -15.039700
v 0.000000 34.416000 -10.389400
v -10.634701 30.192900 -10.634701
v -7.346400 34.416000 -7.346400
v -15.039700 30.192900 0.000000
v -10.389400 34.416000 0.000000
v -10.634701 30.192900 10.634701
v -7.346400 34.416000 7.346400
v 0.000000 30.192900 15.039700
v 0.000000 34.416000 10.389400
v 10.634701 30.192900 10.634701
v 7.346400 34.416000 7.346400
v 10.608300 35.911098 -0.623100
v 7.940500 35.911098 -7.059000
v 7.851900 37.745102 -7.022400
v 10.519600 37.745102 -0.586400
v 8.002700 35.911098 -8.002700
v 0.000000 35.911098 -11.317500
v 0.000000 38.160599 -11.317500
v 8.002700 38.160599 -8.002700
v -8.002700 35.911098 -8.002700
v -8.002700 38.160599 -8.002700
v -11.317500 35.911098 0.000000
v -11.317500 38.160599 0.000000
v -10.608300 35.911098 0.623100
v -7.940500 35.911098 7.059100
v -7.851800 37.745102 7.022300
v -10.519700 37.745102 0.586500
v -8.002700 35.911098 8.002700
v 0.000000 35.911098 11.317500
v 0.000000 38.160599 11.317500
v -8.002700 38.160599 8.002700
v 8.002700 35.911098 8.002700
v 8.002700 38.160599 8.002700
v 11.317500 35.911098 0.000000
v 11.317500 38.160599 0.000000
v 4.657300 37.762402 -3.924700
v 6.068901 37.762402 -0.519200
v 0.000000 38.181198 -5.988600
v 4.234600 38.181198 -4.234600
v -4.234600 38.181198 -4.234500
v -5.988600 38.181198 0.000000
v -4.657300 37.762402 3.924700
v -6.068901 37.762402 0.519200
v 0.000000 38.181198 5.988500
v -4.234500 38.181198 4.234500
v 4.234600 38.181198 4.234600
v 5.988600 38.181198 0.000000
v 4.536500 35.535999 -3.760600
v 5.867400 35.535999 -0.549900
v 0.000000 35.586601 -5.645900
v 3.992300 35.586601 -3.992300
v -3.992300 35.586601 -3.992200
v -5.645900 35.586601 0.000000
v -4.536500 35.535999 3.760600
v -5.867400 35.535999 0.549900
v 0.000000 35.586601 5.645900
v -3.992300 35.586601 3.992300
v 3.992300 35.586601 3.992300
v 5.645900 35.586601 0.000000
v 12.187800 1.219200 0.000000
v 8.618100 1.219200 -8.618100
v 0.000000 1.219200 -12.187800
v -8.618100 1.219200 -8.618100
v -12.187800 1.219200 0.000000
v -8.618100 1.219200 8.618100
v 0.000000 1.219200 12.187800
v 8.618100 1.219200 8.618100
v 0.000000 35.586601 0.000000
v 10.634701 29.302000 -10.634701
v 15.039700 29.302000 0.000000
v 0.000000 29.302000 -15.039700
v -10.634701 29.302000 -10.634701
v -15.039700 29.302000 0.000000
v -10.634701 29.302000 10.634701
v 0.000000 29.302000 15.039700
v 10.634701 29.302000 10.634701
v 10.234800 28.135700 -10.234800
v 10.234800 28.882000 -10.234800
v 14.474200 28.882000 0.000000
v 14.474200 28.135700 0.000000
v 0.000000 28.135700 -14.474200
v 0.000000 28.882000 -14.474200
v -10.234800 28.135700 -10.234800
v -10.234800 28.882000 -10.234800
v -14.474200 28.135700 0.000000
v -14.474200 28.882000 0.000000
v -10.234800 28.135700 10.234800
v -10.234800 28.882000 10.234800
v 0.000000 28.135700 14.474200
v 0.000000 28.882000 14.474200
v 10.234800 28.135700 10.234800
v 10.234800 28.882000 10.234800

# UV coordinates
vt 0.108513 0.363188
vt 0.223503 0.310199
vt 0.322459 0.533585
vt 0.218801 0.596908
vt 0.345739 0.272625
vt 0.442292 0.516717
vt 0.461489 0.247716
vt 0.565730 0.521578
vt 0.563871 0.211662
vt 0.682499 0.454832
vt 0.661732 0.160506
vt 0.794867 0.388601
vt 0.755472 0.097607
vt 0.899054 0.316431
vt 0.848250 0.025101
vt 0.997543 0.244701
vt 0.002250 0.417458
vt 0.126311 0.690402
vt 0.234942 0.618598
vt 0.331579 0.556983
vt 0.349581 0.604272
vt 0.274256 0.653975
vt 0.446607 0.543112
vt 0.439161 0.595223
vt 0.564726 0.574112
vt 0.522389 0.640750
vt 0.592882 0.778766
vt 0.531420 0.765044
vt 0.451333 0.918604
vt 0.432956 0.860729
vt 0.264433 0.892922
vt 0.304628 0.844290
vt 0.166396 0.714348
vt 0.238049 0.739990
vt 0.294644 0.660835
vt 0.349001 0.624822
vt 0.355904 0.638322
vt 0.307133 0.671088
vt 0.354521 0.617319
vt 0.436798 0.609040
vt 0.433164 0.627848
vt 0.361305 0.632706
vt 0.508434 0.653190
vt 0.491865 0.668676
vt 0.516952 0.761054
vt 0.496562 0.755719
vt 0.504805 0.768215
vt 0.435124 0.834220
vt 0.427650 0.820432
vt 0.489696 0.762436
vt 0.427897 0.845539
vt 0.313836 0.832267
vt 0.325272 0.815383
vt 0.420987 0.827297
vt 0.256298 0.741436
vt 0.277946 0.741274
vt 0.284974 0.663279
vt 0.300714 0.674945
vt 0.367928 0.670451
vt 0.338409 0.692666
vt 0.418823 0.668576
vt 0.375190 0.668667
vt 0.453158 0.696521
vt 0.454907 0.745331
vt 0.417185 0.784380
vt 0.451215 0.752948
vt 0.354553 0.780511
vt 0.408682 0.787128
vt 0.326116 0.740873
vt 0.334523 0.698069
vt 0.373908 0.686913
vt 0.352764 0.701608
vt 0.411299 0.686601
vt 0.378363 0.687201
vt 0.433176 0.708737
vt 0.435430 0.743456
vt 0.411187 0.766820
vt 0.434573 0.747995
vt 0.369292 0.764154
vt 0.406410 0.766918
vt 0.347904 0.738391
vt 0.351840 0.706035
vt 0.097242 0.335782
vt 0.212511 0.280299
vt 0.337677 0.244197
vt 0.452008 0.216873
vt 0.551746 0.184325
vt 0.644960 0.133326
vt 0.736788 0.074450
vt 0.817886 0.008776
vt 0.000036 0.383115
vt 0.392312 0.726998
vt 0.328879 0.550132
vt 0.229778 0.612425
vt 0.445963 0.535184
vt 0.571414 0.563039
vt 0.601938 0.781170
vt 0.454197 0.927497
vt 0.259016 0.900530
vt 0.155055 0.710207
vt 0.324532 0.538970
vt 0.326793 0.544717
vt 0.226102 0.607530
vt 0.222168 0.602103
vt 0.443773 0.522701
vt 0.445128 0.529195
vt 0.583197 0.542517
vt 0.577534 0.553649
vt 0.616313 0.785652
vt 0.608569 0.783210
vt 0.458792 0.942155
vt 0.456354 0.934390
vt 0.250373 0.912860
vt 0.254964 0.906218
vt 0.136017 0.702489
vt 0.146323 0.707166
vt 0.686143 0.460955
vt 0.571606 0.526378
vt 0.796367 0.395931
vt 0.903339 0.322108
vt 0.801106 0.392913
vt 0.999998 0.251636

# vertex normals
vn 0.862776 -0.505586 0.000000
vn 0.610077 -0.505581 -0.610077
vn 0.644812 0.410408 -0.644812
vn 0.911905 0.410402 0.000000
vn -0.000000 -0.505586 -0.862776
vn 0.000000 0.410402 -0.911905
vn -0.610077 -0.505581 -0.610077
vn -0.644812 0.410408 -0.644812
vn -0.862707 -0.505704 -0.000000
vn -0.911905 0.410402 0.000000
vn -0.609983 -0.505686 0.610083
vn -0.644812 0.410408 0.644812
vn 0.000000 -0.505586 0.862776
vn 0.000000 0.410402 0.911905
vn 0.610077 -0.505581 0.610077
vn 0.644812 0.410408 0.644812
vn 0.928145 0.372218 0.000000
vn 0.656303 0.372201 -0.656303
vn 0.697273 0.166194 -0.697273
vn 0.986092 0.166199 0.000000
vn 0.000000 0.372218 -0.928145
vn 0.000000 0.166199 -0.986092
vn -0.656303 0.372201 -0.656303
vn -0.697273 0.166194 -0.697273
vn -0.928145 0.372218 0.000000
vn -0.986092 0.166199 0.000000
vn -0.656303 0.372201 0.656303
vn -0.697273 0.166194 0.697273
vn 0.000000 0.372218 0.928145
vn 0.000000 0.166199 0.986092
vn 0.656303 0.372201 0.656303
vn 0.697273 0.166194 0.697273
vn 0.596712 0.678213 -0.428908
vn 0.725425 0.678023 -0.118504
vn 0.786220 0.604416 0.128603
vn 0.465397 0.604096 -0.646896
vn 0.774716 -0.188004 -0.603713
vn -0.000000 -0.258105 -0.966117
vn 0.000000 0.629063 -0.777354
vn 0.713897 0.613497 -0.337598
vn -0.683152 -0.258082 -0.683152
vn -0.549671 0.629066 -0.549671
vn -0.974698 -0.188200 0.120600
vn -0.743520 0.613616 0.265807
vn -0.596712 0.678213 0.428908
vn -0.725425 0.678023 0.118504
vn -0.786220 0.604416 -0.128603
vn -0.465397 0.604096 0.646896
vn -0.774716 -0.188004 0.603713
vn 0.000000 -0.258105 0.966117
vn 0.000000 0.629063 0.777354
vn -0.713989 0.613391 0.337595
vn 0.683099 -0.258100 0.683199
vn 0.549705 0.629006 0.549705
vn 0.974698 -0.188200 -0.120600
vn 0.743500 0.613600 -0.265900
vn -0.353806 0.695113 0.625811
vn -0.692334 0.695534 -0.192109
vn 0.000000 0.840039 0.542525
vn -0.088201 0.766210 0.636508
vn 0.383620 0.840043 0.383620
vn 0.512626 0.766238 0.387419
vn 0.353806 0.695113 -0.625811
vn 0.692334 0.695534 0.192109
vn 0.000000 0.840039 -0.542525
vn 0.088201 0.766210 -0.636508
vn -0.383620 0.840043 -0.383620
vn -0.512626 0.766238 -0.387419
vn -0.488511 0.705816 0.513012
vn -0.708302 0.705702 -0.017100
vn 0.000000 0.678865 0.734263
vn -0.241299 0.746495 0.620096
vn 0.519189 0.678886 0.519189
vn 0.609106 0.746507 0.267802
vn 0.488511 0.705816 -0.513012
vn 0.708302 0.705702 0.017100
vn 0.000000 0.678865 -0.734263
vn 0.241299 0.746495 -0.620096
vn -0.519189 0.678886 -0.519189
vn -0.609106 0.746507 -0.267802
vn 0.369511 -0.929227 0.000000
vn 0.261304 -0.929215 -0.261304
vn -0.000000 -0.929227 -0.369511
vn -0.261304 -0.929215 -0.261304
vn -0.369511 -0.929227 0.000000
vn -0.261304 -0.929215 0.261304
vn 0.000000 -0.929227 0.369511
vn 0.261304 -0.929215 0.261304
vn 0.000000 1.000000 0.000000
vn 0.644812 -0.410408 -0.644812
vn 0.911905 -0.410402 0.000000
vn 0.000000 -0.410402 -0.911905
vn -0.644812 -0.410408 -0.644812
vn -0.911905 -0.410402 -0.000000
vn -0.644812 -0.410408 0.644812
vn 0.000000 -0.410402 0.911905
vn 0.644812 -0.410408 0.644812
vn 0.612324 0.500119 -0.612324
vn 0.612324 -0.500119 -0.612324
vn 0.865976 -0.500086 0.000000
vn 0.865976 0.500086 0.000000
vn 0.000000 0.500086 -0.865976
vn -0.000000 -0.500086 -0.865976
vn -0.612324 0.500119 -0.612324
vn -0.612324 -0.500119 -0.612324
vn -0.865976 0.500086 0.000000
vn -0.865976 -0.500086 0.000000
vn -0.612324 0.500119 0.612324
vn -0.612324 -0.500119 0.612324
vn 0.000000 0.500086 0.865976
vn 0.000000 -0.500086 0.865976
vn 0.612324 0.500119 0.612324
vn 0.612324 -0.500119 0.612324

# Mesh
g Bin
usemtl wire_027177088
f 4/4/4 1/1/1 2/2/2
f 2/2/2 3/3/3 4/4/4
f 3/3/3 2/2/2 5/5/5
f 5/5/5 6/6/6 3/3/3
f 6/6/6 5/5/5 7/7/7
f 7/7/7 8/8/8 6/6/6
f 8/8/8 7/7/7 9/9/9
f 9/9/9 10/10/10 8/8/8
f 10/10/10 9/9/9 11/11/11
f 11/11/11 12/12/12 10/10/10
f 12/12/12 11/11/11 13/13/13
f 13/13/13 14/14/14 12/12/12
f 14/14/14 13/13/13 15/15/15
f 15/15/15 16/16/16 14/14/14
f 16/18/16 15/17/15 1/1/1
f 1/1/1 4/4/4 16/18/16
f 20/22/20 17/19/17 18/20/18
f 18/20/18 19/21/19 20/22/20
f 19/21/19 18/20/18 21/23/21
f 21/23/21 22/24/22 19/21/19
f 22/24/22 21/23/21 23/25/23
f 23/25/23 24/26/24 22/24/22
f 24/26/24 23/25/23 25/27/25
f 25/27/25 26/28/26 24/26/24
f 26/28/26 25/27/25 27/29/27
f 27/29/27 28/30/28 26/28/26
f 28/30/28 27/29/27 29/31/29
f 29/31/29 30/32/30 28/30/28
f 30/32/30 29/31/29 31/33/31
f 31/33/31 32/34/32 30/32/30
f 32/34/32 31/33/31 17/19/17
f 17/19/17 20/22/20 32/34/32
f 36/38/36 33/35/33 34/36/34
f 34/36/34 35/37/35 36/38/36
f 40/42/40 37/39/37 38/40/38
f 38/40/38 39/41/39 40/42/40
f 39/41/39 38/40/38 41/43/41
f 41/43/41 42/44/42 39/41/39
f 42/44/42 41/43/41 43/45/43
f 43/45/43 44/46/44 42/44/42
f 48/50/48 45/47/45 46/48/46
f 46/48/46 47/49/47 48/50/48
f 52/54/52 49/51/49 50/52/50
f 50/52/50 51/53/51 52/54/52
f 51/53/51 50/52/50 53/55/53
f 53/55/53 54/56/54 51/53/51
f 54/56/54 53/55/53 55/57/55
f 55/57/55 56/58/56 54/56/54
f 58/60/58 36/38/36 35/37/35
f 35/37/35 57/59/57 58/60/58
f 60/62/60 40/42/40 39/41/39
f 39/41/39 59/61/59 60/62/60
f 59/61/59 39/41/39 42/44/42
f 42/44/42 61/63/61 59/61/59
f 61/63/61 42/44/42 44/46/44
f 44/46/44 62/64/62 61/63/61
f 64/66/64 48/50/48 47/49/47
f 47/49/47 63/65/63 64/66/64
f 66/68/66 52/54/52 51/53/51
f 51/53/51 65/67/65 66/68/66
f 65/67/65 51/53/51 54/56/54
f 54/56/54 67/69/67 65/67/65
f 67/69/67 54/56/54 56/58/56
f 56/58/56 68/70/68 67/69/67
f 70/72/70 58/60/58 57/59/57
f 57/59/57 69/71/69 70/72/70
f 72/74/72 60/62/60 59/61/59
f 59/61/59 71/73/71 72/74/72
f 71/73/71 59/61/59 61/63/61
f 61/63/61 73/75/73 71/73/71
f 73/75/73 61/63/61 62/64/62
f 62/64/62 74/76/74 73/75/73
f 76/78/76 64/66/64 63/65/63
f 63/65/63 75/77/75 76/78/76
f 78/80/78 66/68/66 65/67/65
f 65/67/65 77/79/77 78/80/78
f 77/79/77 65/67/65 67/69/67
f 67/69/67 79/81/79 77/79/77
f 79/81/79 67/69/67 68/70/68
f 68/70/68 80/82/80 79/81/79
f 82/84/82 2/2/2 1/1/1
f 1/1/1 81/83/81 82/84/82
f 83/85/83 5/5/5 2/2/2
f 2/2/2 82/84/82 83/85/83
f 84/86/84 7/7/7 5/5/5
f 5/5/5 83/85/83 84/86/84
f 85/87/85 9/9/9 7/7/7
f 7/7/7 84/86/84 85/87/85
f 86/88/86 11/11/11 9/9/9
f 9/9/9 85/87/85 86/88/86
f 87/89/87 13/13/13 11/11/11
f 11/11/11 86/88/86 87/89/87
f 88/90/88 15/15/15 13/13/13
f 13/13/13 87/89/87 88/90/88
f 81/83/81 1/1/1 15/17/15
f 15/17/15 88/91/88 81/83/81
f 55/57/55 20/22/20 19/21/19
f 19/21/19 37/39/37 55/57/55
f 37/39/37 19/21/19 22/24/22
f 22/24/22 38/40/38 37/39/37
f 38/40/38 22/24/22 24/26/24
f 24/26/24 41/43/41 38/40/38
f 41/43/41 24/26/24 26/28/26
f 26/28/26 43/45/43 41/43/41
f 43/45/43 26/28/26 28/30/28
f 28/30/28 49/51/49 43/45/43
f 49/51/49 28/30/28 30/32/30
f 30/32/30 50/52/50 49/51/49
f 50/52/50 30/32/30 32/34/32
f 32/34/32 53/55/53 50/52/50
f 53/55/53 32/34/32 20/22/20
f 20/22/20 55/57/55 53/55/53
f 80/82/80 72/74/72 89/92/89
f 79/81/79 80/82/80 89/92/89
f 77/79/77 79/81/79 89/92/89
f 78/80/78 77/79/77 89/92/89
f 74/76/74 78/80/78 89/92/89
f 73/75/73 74/76/74 89/92/89
f 71/73/71 73/75/73 89/92/89
f 72/74/72 71/73/71 89/92/89
f 33/35/33 55/57/55 37/39/37
f 37/39/37 34/36/34 33/35/33
f 34/36/34 37/39/37 40/42/40
f 40/42/40 35/37/35 34/36/34
f 35/37/35 40/42/40 60/62/60
f 60/62/60 57/59/57 35/37/35
f 57/59/57 60/62/60 72/74/72
f 72/74/72 69/71/69 57/59/57
f 69/71/69 72/74/72 80/82/80
f 80/82/80 70/72/70 69/71/69
f 70/72/70 80/82/80 68/70/68
f 68/70/68 58/60/58 70/72/70
f 58/60/58 68/70/68 56/58/56
f 56/58/56 36/38/36 58/60/58
f 36/38/36 56/58/56 55/57/55
f 55/57/55 33/35/33 36/38/36
f 48/50/48 44/46/44 43/45/43
f 43/45/43 45/47/45 48/50/48
f 45/47/45 43/45/43 49/51/49
f 49/51/49 46/48/46 45/47/45
f 46/48/46 49/51/49 52/54/52
f 52/54/52 47/49/47 46/48/46
f 47/49/47 52/54/52 66/68/66
f 66/68/66 63/65/63 47/49/47
f 63/65/63 66/68/66 78/80/78
f 78/80/78 75/77/75 63/65/63
f 75/77/75 78/80/78 74/76/74
f 74/76/74 76/78/76 75/77/75
f 76/78/76 74/76/74 62/64/62
f 62/64/62 64/66/64 76/78/76
f 64/66/64 62/64/62 44/46/44
f 44/46/44 48/50/48 64/66/64
f 91/94/91 90/93/90 18/20/18
f 18/20/18 17/19/17 91/94/91
f 90/93/90 92/95/92 21/23/21
f 21/23/21 18/20/18 90/93/90
f 92/95/92 93/96/93 23/25/23
f 23/25/23 21/23/21 92/95/92
f 93/96/93 94/97/94 25/27/25
f 25/27/25 23/25/23 93/96/93
f 94/97/94 95/98/95 27/29/27
f 27/29/27 25/27/25 94/97/94
f 95/98/95 96/99/96 29/31/29
f 29/31/29 27/29/27 95/98/95
f 96/99/96 97/100/97 31/33/31
f 31/33/31 29/31/29 96/99/96
f 97/100/97 91/94/91 17/19/17
f 17/19/17 31/33/31 97/100/97
f 101/104/101 98/101/98 99/102/99
f 99/102/99 100/103/100 101/104/101
f 98/101/98 102/105/102 103/106/103
f 103/106/103 99/102/99 98/101/98
f 102/105/102 104/107/104 105/108/105
f 105/108/105 103/106/103 102/105/102
f 104/107/104 106/109/106 107/110/107
f 107/110/107 105/108/105 104/107/104
f 106/109/106 108/111/108 109/112/109
f 109/112/109 107/110/107 106/109/106
f 108/111/108 110/113/110 111/114/111
f 111/114/111 109/112/109 108/111/108
f 110/113/110 112/115/112 113/116/113
f 113/116/113 111/114/111 110/113/110
f 112/115/112 101/104/101 100/103/100
f 100/103/100 113/116/113 112/115/112
f 99/102/99 90/93/90 91/94/91
f 91/94/91 100/103/100 99/102/99
f 100/103/100 91/94/91 97/100/97
f 97/100/97 113/116/113 100/103/100
f 113/116/113 97/100/97 96/99/96
f 96/99/96 111/114/111 113/116/113
f 111/114/111 96/99/96 95/98/95
f 95/98/95 109/112/109 111/114/111
f 109/112/109 95/98/95 94/97/94
f 94/97/94 107/110/107 109/112/109
f 107/110/107 94/97/94 93/96/93
f 93/96/93 105/108/105 107/110/107
f 105/108/105 93/96/93 92/95/92
f 92/95/92 103/106/103 105/108/105
f 103/106/103 92/95/92 90/93/90
f 90/93/90 99/102/99 103/106/103
f 101/104/101 4/4/4 3/3/3
f 3/3/3 98/101/98 101/104/101
f 98/101/98 3/3/3 6/6/6
f 6/6/6 102/105/102 98/101/98
f 102/105/102 6/6/6 8/8/8
f 8/8/8 104/107/104 102/105/102
f 104/118/104 8/8/8 10/10/10
f 10/10/10 106/117/106 104/118/104
f 106/117/106 10/10/10 12/12/12
f 12/12/12 108/119/108 106/117/106
f 108/121/108 12/12/12 14/14/14
f 14/14/14 110/120/110 108/121/108
f 110/120/110 14/14/14 16/16/16
f 16/16/16 112/122/112 110/120/110
f 112/115/112 16/18/16 4/4/4
f 4/4/4 101/104/101 112/115/112
