# 3ds Max Wavefront OBJ Exporter v0.99 - (c)2007 guruware
# File Created: 16.10.2022 16:56:06

mtllib Keypad.mtl

#
# object Keypad
#

v  -3.2003 6.6709 2.6065
v  -3.2003 1.5742 2.6065
v  3.2003 1.5742 2.6065
v  3.2003 6.6709 2.6065
v  -3.9352 -8.4219 2.0978
v  -3.9352 -8.4219 -0.0396
v  3.9352 -8.4219 -0.0396
v  3.9352 -8.4219 2.0978
v  4.8991 -7.4580 2.0978
v  4.8991 -7.4580 -0.0396
v  4.8991 8.4219 -0.0396
v  4.8991 8.4219 2.0978
v  -4.8991 8.4219 -0.0396
v  -4.8991 8.4219 2.0978
v  -4.8991 -7.4580 -0.0396
v  -4.8991 -7.4580 2.0978
v  2.7546 -7.4580 3.0617
v  -2.7547 -7.4580 3.0617
v  3.9352 7.4580 3.0617
v  3.9143 -6.3862 3.0617
v  -3.9352 7.4580 3.0617
v  -3.9142 -6.3862 3.0617
v  3.5558 1.2911 3.0617
v  3.5558 6.9540 3.0617
v  -3.5558 6.9540 3.0617
v  -3.5558 1.2911 3.0617
v  0.0000 -4.0363 3.0617
v  -3.2011 0.1801 3.6191
v  -3.2011 -1.5369 3.6191
v  -1.4841 -1.5369 3.6191
v  -1.4841 0.1801 3.6191
v  -3.4158 -1.7516 2.9811
v  -1.2694 -1.7516 2.9811
v  -1.2694 0.3947 2.9811
v  -3.4158 0.3947 2.9811
v  -0.9148 0.1801 3.6191
v  -0.9148 -1.5369 3.6191
v  0.8022 -1.5369 3.6191
v  0.8022 0.1801 3.6191
v  -1.1294 -1.7516 2.9811
v  1.0169 -1.7516 2.9811
v  1.0169 0.3947 2.9811
v  -1.1294 0.3947 2.9811
v  1.3716 0.1801 3.6191
v  1.3716 -1.5369 3.6191
v  3.0887 -1.5369 3.6191
v  3.0887 0.1801 3.6191
v  1.1570 -1.7516 2.9811
v  3.3033 -1.7516 2.9811
v  3.3033 0.3947 2.9811
v  1.1570 0.3947 2.9811
v  1.3716 -2.0577 3.6191
v  1.3716 -3.7747 3.6191
v  3.0887 -3.7747 3.6191
v  3.0887 -2.0577 3.6191
v  1.1570 -3.9893 2.9811
v  3.3033 -3.9893 2.9811
v  3.3033 -1.8431 2.9811
v  1.1570 -1.8431 2.9811
v  -0.9148 -2.0577 3.6191
v  -0.9148 -3.7747 3.6191
v  0.8022 -3.7747 3.6191
v  0.8022 -2.0577 3.6191
v  -1.1294 -3.9893 2.9811
v  1.0169 -3.9893 2.9811
v  1.0169 -1.8431 2.9811
v  -1.1294 -1.8431 2.9811
v  -3.2011 -2.0577 3.6191
v  -3.2011 -3.7747 3.6191
v  -1.4841 -3.7747 3.6191
v  -1.4841 -2.0577 3.6191
v  -3.4158 -3.9893 2.9811
v  -1.2694 -3.9893 2.9811
v  -1.2694 -1.8431 2.9811
v  -3.4158 -1.8431 2.9811
v  -3.2011 -4.2910 3.6191
v  -3.2011 -6.0080 3.6191
v  -1.4841 -6.0080 3.6191
v  -1.4841 -4.2910 3.6191
v  -3.4158 -6.2226 2.9811
v  -1.2694 -6.2226 2.9811
v  -1.2694 -4.0763 2.9811
v  -3.4158 -4.0763 2.9811
v  -0.9148 -4.2910 3.6191
v  -0.9148 -6.0080 3.6191
v  0.8022 -6.0080 3.6191
v  0.8022 -4.2910 3.6191
v  -1.1294 -6.2226 2.9811
v  1.0169 -6.2226 2.9811
v  1.0169 -4.0763 2.9811
v  -1.1294 -4.0763 2.9811
v  1.3716 -4.2910 3.6191
v  1.3716 -6.0080 3.6191
v  3.0887 -6.0080 3.6191
v  3.0887 -4.2910 3.6191
v  1.1570 -6.2226 2.9811
v  3.3033 -6.2226 2.9811
v  3.3033 -4.0763 2.9811
v  1.1570 -4.0763 2.9811
# 99 vertices

vn 0.3439 -0.3943 0.8522
vn 0.3439 0.3943 0.8522
vn -0.3439 0.3943 0.8522
vn -0.3439 -0.3943 0.8522
vn -0.3676 -0.8279 0.4236
vn -0.3827 -0.9239 -0.0000
vn 0.3827 -0.9239 0.0000
vn 0.3676 -0.8279 0.4236
vn 0.8310 -0.3661 0.4189
vn 0.9239 -0.3827 0.0000
vn 0.7071 0.7071 0.0000
vn 0.6507 0.6507 0.3914
vn -0.7071 0.7071 0.0000
vn -0.6507 0.6507 0.3914
vn -0.9239 -0.3827 -0.0000
vn -0.8310 -0.3661 0.4189
vn 0.0931 -0.3842 0.9185
vn -0.0931 -0.3842 0.9185
vn 0.3007 0.2998 0.9054
vn 0.3779 -0.1123 0.9190
vn -0.3007 0.2998 0.9054
vn -0.3779 -0.1123 0.9190
vn -0.1454 0.1384 0.9796
vn -0.1454 -0.1384 0.9796
vn 0.1454 -0.1384 0.9796
vn 0.1454 0.1384 0.9796
vn 0.0000 0.0000 1.0000
vn -0.4758 0.4758 0.7397
vn -0.4758 -0.4758 0.7397
vn 0.4758 -0.4758 0.7397
vn 0.4758 0.4758 0.7397
vn -0.6385 -0.6385 0.4297
vn 0.6385 -0.6385 0.4297
vn 0.6385 0.6385 0.4297
vn -0.6385 0.6385 0.4297
# 35 vertex normals

vt 0.1694 0.7814 0.0000
vt 0.1746 0.5674 0.0000
vt 0.4098 0.5823 0.0000
vt 0.4186 0.8027 0.0000
vt 0.1356 0.1009 0.0000
vt 0.1121 0.0134 0.0000
vt 0.4426 0.0000 0.0000
vt 0.4505 0.0999 0.0000
vt 0.4823 0.1663 0.0000
vt 0.5610 0.1667 0.0000
vt 0.5835 0.9114 0.0000
vt 0.5026 0.9062 0.0000
vt 0.5017 1.0000 0.0000
vt 0.0866 0.9639 0.0000
vt 0.0834 0.8700 0.0000
vt 0.0000 0.8611 0.0000
vt 0.0272 0.1230 0.0000
vt 0.1057 0.1473 0.0000
vt 0.3988 0.1603 0.0000
vt 0.1901 0.1593 0.0000
vt 0.4530 0.8478 0.0000
vt 0.4356 0.2122 0.0000
vt 0.1346 0.8211 0.0000
vt 0.1529 0.2014 0.0000
vt 0.4315 0.5632 0.0000
vt 0.4379 0.8248 0.0000
vt 0.1500 0.8008 0.0000
vt 0.1567 0.5451 0.0000
vt 0.5453 0.1018 0.0000
vt 0.2955 0.3151 0.0000
vt 0.5771 0.1046 0.0000
vt 0.5792 0.0302 0.0000
vt 0.6453 0.0512 0.0000
vt 0.6494 0.1200 0.0000
vt 0.5766 0.0000 0.0000
vt 0.6654 0.0313 0.0000
vt 0.6805 0.1316 0.0000
vt 0.6561 0.1495 0.0000
vt 0.5670 0.1310 0.0000
vt 0.5495 0.1088 0.0000
vt 0.5521 0.0168 0.0000
vt 0.6912 0.7823 0.0000
vt 0.6928 0.7088 0.0000
vt 0.7605 0.7068 0.0000
vt 0.7642 0.7743 0.0000
vt 0.6889 0.6786 0.0000
vt 0.7823 0.6830 0.0000
vt 0.7946 0.7757 0.0000
vt 0.7719 0.8015 0.0000
vt 0.6816 0.8111 0.0000
vt 0.6633 0.7943 0.0000
vt 0.6651 0.7035 0.0000
vt 0.6062 0.6574 0.0000
vt 0.6078 0.5839 0.0000
vt 0.6755 0.5819 0.0000
vt 0.6792 0.6495 0.0000
vt 0.6039 0.5538 0.0000
vt 0.6973 0.5582 0.0000
vt 0.7096 0.6508 0.0000
vt 0.6869 0.6766 0.0000
vt 0.5966 0.6862 0.0000
vt 0.5783 0.6694 0.0000
vt 0.5801 0.5786 0.0000
vt 0.5940 0.2543 0.0000
vt 0.5956 0.1806 0.0000
vt 0.6632 0.1764 0.0000
vt 0.6670 0.2440 0.0000
vt 0.5917 0.1506 0.0000
vt 0.6849 0.1520 0.0000
vt 0.6972 0.2444 0.0000
vt 0.6747 0.2710 0.0000
vt 0.5844 0.2835 0.0000
vt 0.5661 0.2672 0.0000
vt 0.5679 0.1761 0.0000
vt 0.5980 0.3878 0.0000
vt 0.5997 0.3141 0.0000
vt 0.6672 0.3100 0.0000
vt 0.6710 0.3776 0.0000
vt 0.5958 0.2842 0.0000
vt 0.6890 0.2855 0.0000
vt 0.7012 0.3779 0.0000
vt 0.6787 0.4045 0.0000
vt 0.5885 0.4170 0.0000
vt 0.5701 0.4007 0.0000
vt 0.5720 0.3096 0.0000
vt 0.7079 0.0967 0.0000
vt 0.7081 0.0272 0.0000
vt 0.7803 0.0312 0.0000
vt 0.7829 0.0970 0.0000
vt 0.7045 0.0000 0.0000
vt 0.8030 0.0094 0.0000
vt 0.8156 0.1008 0.0000
vt 0.7898 0.1238 0.0000
vt 0.6968 0.1235 0.0000
vt 0.6790 0.1064 0.0000
vt 0.6791 0.0200 0.0000
vt 0.7264 0.2223 0.0000
vt 0.7263 0.1529 0.0000
vt 0.8013 0.1526 0.0000
vt 0.7987 0.2183 0.0000
vt 0.7152 0.1260 0.0000
vt 0.8082 0.1257 0.0000
vt 0.8339 0.1487 0.0000
vt 0.8214 0.2402 0.0000
vt 0.7229 0.2495 0.0000
vt 0.6975 0.2295 0.0000
vt 0.6974 0.1431 0.0000
vt 0.6019 0.5218 0.0000
vt 0.6002 0.4481 0.0000
vt 0.6732 0.4584 0.0000
vt 0.6695 0.5260 0.0000
vt 0.5907 0.4190 0.0000
vt 0.6809 0.4314 0.0000
vt 0.7034 0.4581 0.0000
vt 0.6912 0.5505 0.0000
vt 0.5980 0.5518 0.0000
vt 0.5742 0.5264 0.0000
vt 0.5724 0.4353 0.0000
vt 0.7284 0.3574 0.0000
vt 0.7281 0.2826 0.0000
vt 0.7977 0.2882 0.0000
vt 0.7955 0.3592 0.0000
vt 0.7180 0.2529 0.0000
vt 0.8046 0.2597 0.0000
vt 0.8273 0.2866 0.0000
vt 0.8157 0.3853 0.0000
vt 0.7248 0.3867 0.0000
vt 0.7014 0.3622 0.0000
vt 0.7012 0.2696 0.0000
# 129 texture coords

o Keypad
g Keypad
usemtl Keypad_wire_108008136
s 1
f 1/1/1 2/2/2 3/3/3 
f 3/3/3 4/4/4 1/1/1 
f 5/5/5 6/6/6 7/7/7 
f 7/7/7 8/8/8 5/5/5 
f 9/9/9 10/10/10 11/11/11 
f 11/11/11 12/12/12 9/9/9 
f 12/12/12 11/13/11 13/14/13 
f 13/14/13 14/15/14 12/12/12 
f 14/15/14 13/16/13 15/17/15 
f 15/17/15 16/18/16 14/15/14 
f 8/8/8 17/19/17 18/20/18 
f 18/20/18 5/5/5 8/8/8 
f 12/12/12 19/21/19 20/22/20 
f 20/22/20 9/9/9 12/12/12 
f 14/15/14 21/23/21 19/21/19 
f 19/21/19 12/12/12 14/15/14 
f 16/18/16 22/24/22 21/23/21 
f 21/23/21 14/15/14 16/18/16 
f 23/25/23 20/22/20 19/21/19 
f 19/21/19 24/26/24 23/25/23 
f 24/26/24 19/21/19 21/23/21 
f 21/23/21 25/27/25 24/26/24 
f 25/27/25 21/23/21 22/24/22 
f 22/24/22 26/28/26 25/27/25 
f 2/2/2 26/28/26 23/25/23 
f 23/25/23 3/3/3 2/2/2 
f 3/3/3 23/25/23 24/26/24 
f 24/26/24 4/4/4 3/3/3 
f 4/4/4 24/26/24 25/27/25 
f 25/27/25 1/1/1 4/4/4 
f 1/1/1 25/27/25 26/28/26 
f 26/28/26 2/2/2 1/1/1 
f 9/9/9 8/8/8 7/29/7 
f 7/29/7 10/10/10 9/9/9 
f 15/17/15 6/6/6 5/5/5 
f 5/5/5 16/18/16 15/17/15 
f 16/18/16 5/5/5 18/20/18 
f 18/20/18 22/24/22 16/18/16 
f 20/22/20 17/19/17 8/8/8 
f 8/8/8 9/9/9 20/22/20 
f 18/20/18 17/19/17 27/30/27 
f 17/19/17 20/22/20 27/30/27 
f 20/22/20 23/25/23 27/30/27 
f 23/25/23 26/28/26 27/30/27 
f 26/28/26 22/24/22 27/30/27 
f 22/24/22 18/20/18 27/30/27 
f 28/31/28 29/32/29 30/33/30 
f 30/33/30 31/34/31 28/31/28 
f 29/32/29 32/35/32 33/36/33 
f 33/36/33 30/33/30 29/32/29 
f 30/33/30 33/36/33 34/37/34 
f 34/37/34 31/34/31 30/33/30 
f 31/34/31 34/38/34 35/39/35 
f 35/39/35 28/31/28 31/34/31 
f 28/31/28 35/40/35 32/41/32 
f 32/41/32 29/32/29 28/31/28 
f 36/42/28 37/43/29 38/44/30 
f 38/44/30 39/45/31 36/42/28 
f 37/43/29 40/46/32 41/47/33 
f 41/47/33 38/44/30 37/43/29 
f 38/44/30 41/47/33 42/48/34 
f 42/48/34 39/45/31 38/44/30 
f 39/45/31 42/49/34 43/50/35 
f 43/50/35 36/42/28 39/45/31 
f 36/42/28 43/51/35 40/52/32 
f 40/52/32 37/43/29 36/42/28 
f 44/53/28 45/54/29 46/55/30 
f 46/55/30 47/56/31 44/53/28 
f 45/54/29 48/57/32 49/58/33 
f 49/58/33 46/55/30 45/54/29 
f 46/55/30 49/58/33 50/59/34 
f 50/59/34 47/56/31 46/55/30 
f 47/56/31 50/60/34 51/61/35 
f 51/61/35 44/53/28 47/56/31 
f 44/53/28 51/62/35 48/63/32 
f 48/63/32 45/54/29 44/53/28 
f 52/64/28 53/65/29 54/66/30 
f 54/66/30 55/67/31 52/64/28 
f 53/65/29 56/68/32 57/69/33 
f 57/69/33 54/66/30 53/65/29 
f 54/66/30 57/69/33 58/70/34 
f 58/70/34 55/67/31 54/66/30 
f 55/67/31 58/71/34 59/72/35 
f 59/72/35 52/64/28 55/67/31 
f 52/64/28 59/73/35 56/74/32 
f 56/74/32 53/65/29 52/64/28 
f 60/75/28 61/76/29 62/77/30 
f 62/77/30 63/78/31 60/75/28 
f 61/76/29 64/79/32 65/80/33 
f 65/80/33 62/77/30 61/76/29 
f 62/77/30 65/80/33 66/81/34 
f 66/81/34 63/78/31 62/77/30 
f 63/78/31 66/82/34 67/83/35 
f 67/83/35 60/75/28 63/78/31 
f 60/75/28 67/84/35 64/85/32 
f 64/85/32 61/76/29 60/75/28 
f 68/86/28 69/87/29 70/88/30 
f 70/88/30 71/89/31 68/86/28 
f 69/87/29 72/90/32 73/91/33 
f 73/91/33 70/88/30 69/87/29 
f 70/88/30 73/91/33 74/92/34 
f 74/92/34 71/89/31 70/88/30 
f 71/89/31 74/93/34 75/94/35 
f 75/94/35 68/86/28 71/89/31 
f 68/86/28 75/95/35 72/96/32 
f 72/96/32 69/87/29 68/86/28 
f 76/97/28 77/98/29 78/99/30 
f 78/99/30 79/100/31 76/97/28 
f 77/98/29 80/101/32 81/102/33 
f 81/102/33 78/99/30 77/98/29 
f 78/99/30 81/103/33 82/104/34 
f 82/104/34 79/100/31 78/99/30 
f 79/100/31 82/104/34 83/105/35 
f 83/105/35 76/97/28 79/100/31 
f 76/97/28 83/106/35 80/107/32 
f 80/107/32 77/98/29 76/97/28 
f 84/108/28 85/109/29 86/110/30 
f 86/110/30 87/111/31 84/108/28 
f 85/109/29 88/112/32 89/113/33 
f 89/113/33 86/110/30 85/109/29 
f 86/110/30 89/114/33 90/115/34 
f 90/115/34 87/111/31 86/110/30 
f 87/111/31 90/115/34 91/116/35 
f 91/116/35 84/108/28 87/111/31 
f 84/108/28 91/117/35 88/118/32 
f 88/118/32 85/109/29 84/108/28 
f 92/119/28 93/120/29 94/121/30 
f 94/121/30 95/122/31 92/119/28 
f 93/120/29 96/123/32 97/124/33 
f 97/124/33 94/121/30 93/120/29 
f 94/121/30 97/125/33 98/126/34 
f 98/126/34 95/122/31 94/121/30 
f 95/122/31 98/126/34 99/127/35 
f 99/127/35 92/119/28 95/122/31 
f 92/119/28 99/128/35 96/129/32 
f 96/129/32 93/120/29 92/119/28 
# 0 polygons - 136 triangles

