# 3ds Max Wavefront OBJ Exporter v0.99 - (c)2007 guruware
# File Created: 15.10.2022 21:30:33

mtllib DoorL.mtl

#
# object DoorL
#

v  -10.9617 47.1545 6.4819
v  1.2868 22.6541 6.4819
v  9.1903 59.4994 6.4819
v  3.6705 67.7118 6.4819
v  19.8020 90.3756 6.4819
v  28.7612 90.5992 6.4819
v  29.0156 110.7267 6.4819
v  19.8020 119.4311 6.4819
v  -10.9213 0.0001 6.4819
v  -16.1953 47.1545 1.2803
v  -16.1549 0.0001 1.2803
v  -1.3455 68.0176 1.2803
v  14.5683 119.4311 1.2803
v  14.5683 90.3756 1.2803
v  10.3470 64.2813 6.4819
v  90.8970 90.3756 6.4819
v  52.1413 90.5992 6.4819
v  51.3017 64.2800 6.4819
v  32.7875 22.6517 6.4819
v  90.8656 0.0000 6.4819
v  51.3014 59.4980 6.4819
v  90.8970 137.0692 6.4819
v  52.5072 119.5475 6.4819
v  52.3756 109.1358 6.4819
v  2.7830 24.0536 1.2183
v  10.5402 58.0563 1.0549
v  31.8994 24.0921 1.0655
v  49.0667 58.1199 1.2990
v  29.4905 89.1581 1.0626
v  50.6239 89.1721 1.1152
v  13.0237 65.6359 1.3875
v  49.9602 65.7064 1.1178
v  -21.2999 0.0000 1.2803
v  -21.3402 48.3077 1.2803
v  -21.3402 48.3077 -0.0869
v  -21.2999 0.0000 -0.0869
v  9.4234 91.5288 1.2803
v  9.4234 120.5843 1.2803
v  9.4234 120.5843 -0.0869
v  9.4234 91.5288 -0.0869
v  -6.4904 69.1708 1.2803
v  -6.4904 69.1708 -0.0869
v  -8.3971 66.4920 -0.0869
v  29.1271 119.5475 6.4819
v  29.5248 137.0692 6.4819
v  19.8020 137.0692 6.4819
v  14.5683 137.0692 1.2803
v  35.0903 119.5475 6.4819
v  9.4234 137.0036 1.2803
v  9.4234 137.0036 -0.0869
v  47.7430 109.7625 1.2530
v  51.0980 109.7625 6.4183
v  45.8321 118.8834 6.4183
v  44.1546 115.9779 1.2530
v  35.3001 118.8834 6.4183
v  36.9776 115.9779 1.2530
v  30.0342 109.7625 6.4183
v  33.3891 109.7625 1.2530
v  35.3001 100.6416 6.4183
v  36.9776 103.5471 1.2530
v  45.8321 100.6416 6.4183
v  44.1546 103.5471 1.2530
v  43.7288 115.2405 4.2822
v  46.8915 109.7625 4.2822
v  37.4034 115.2405 4.2822
v  34.2407 109.7625 4.2822
v  37.4034 104.2845 4.2822
v  43.7288 104.2845 4.2822
v  42.7533 113.5509 6.3092
v  44.9405 109.7625 6.3092
v  38.3789 113.5509 6.3092
v  36.1916 109.7625 6.3092
v  38.3789 105.9741 6.3092
v  42.7533 105.9741 6.3092
v  41.7778 111.8613 4.2371
v  42.9896 109.7625 4.2371
v  39.3544 111.8613 4.2371
v  38.1426 109.7625 4.2371
v  39.3544 107.6637 4.2371
v  41.7778 107.6637 4.2371
v  41.7778 111.8613 2.1649
v  42.9896 109.7625 2.1649
v  39.3544 111.8613 2.1649
v  38.1426 109.7625 2.1649
v  39.3544 107.6637 2.1649
v  41.7778 107.6637 2.1649
v  -10.9617 47.1545 -6.6558
v  3.6705 67.7118 -6.6558
v  9.1903 59.4994 -6.6558
v  1.2868 22.6541 -6.6558
v  19.8020 119.4311 -6.6558
v  29.1271 119.5475 -6.6558
v  29.0055 109.9275 -6.6558
v  -10.9213 0.0001 -6.6558
v  -16.1549 0.0001 -1.4542
v  -16.1953 47.1545 -1.4542
v  -1.3455 68.0176 -1.4542
v  19.8020 90.3756 -6.6558
v  14.5683 90.3756 -1.4542
v  14.5683 119.4311 -1.4542
v  10.3470 64.2813 -6.6558
v  28.7612 90.5992 -6.6558
v  90.8970 90.3756 -6.6558
v  51.3017 64.2800 -6.6558
v  52.1413 90.5992 -6.6558
v  32.7875 22.6517 -6.6558
v  90.8656 0.0000 -6.6558
v  51.3014 59.4980 -6.6558
v  52.5072 123.4952 -6.6250
v  90.8970 137.0692 -6.6558
v  10.5402 58.0563 -1.2288
v  2.7830 24.0536 -1.3922
v  31.8994 24.0921 -1.2394
v  49.0667 58.1199 -1.4729
v  50.6239 89.1721 -1.2890
v  29.4905 89.1581 -1.2365
v  13.0237 65.6359 -1.5614
v  49.9602 65.7064 -1.2917
v  -21.2999 0.0000 -1.4542
v  -21.3402 48.3077 -1.4542
v  9.4234 91.5288 -1.4542
v  9.4234 120.5843 -1.4542
v  -6.4904 69.1708 -1.4542
v  19.8020 137.0692 -6.6558
v  29.5248 137.0692 -6.6558
v  14.5683 137.0692 -1.4542
v  35.0741 123.4952 -6.6250
v  9.4234 137.0036 -1.4542
v  47.7430 109.7625 -1.4269
v  44.1546 115.9779 -1.4269
v  45.8321 118.8834 -6.6230
v  51.0980 109.7625 -6.5922
v  36.9776 115.9779 -1.4269
v  35.3001 118.8834 -6.6230
v  33.3891 109.7625 -1.4269
v  30.0342 109.7625 -6.5922
v  36.9776 103.5471 -1.4269
v  35.3001 100.6416 -6.5922
v  44.1546 103.5471 -1.4269
v  45.8321 100.6416 -6.5922
v  46.8915 109.7625 -4.4561
v  43.7288 115.2405 -4.4561
v  37.4034 115.2405 -4.4561
v  34.2407 109.7625 -4.4561
v  37.4034 104.2845 -4.4561
v  43.7288 104.2845 -4.4561
v  44.9405 109.7625 -6.4831
v  42.7533 113.5509 -6.4831
v  38.3789 113.5509 -6.4831
v  36.1916 109.7625 -6.4831
v  38.3789 105.9741 -6.4831
v  42.7533 105.9741 -6.4831
v  42.9896 109.7625 -4.4110
v  41.7778 111.8613 -4.4110
v  39.3544 111.8613 -4.4110
v  38.1426 109.7625 -4.4110
v  39.3544 107.6637 -4.4110
v  41.7778 107.6637 -4.4110
v  42.9896 109.7625 -2.3388
v  41.7778 111.8613 -2.3388
v  39.3544 111.8613 -2.3388
v  38.1426 109.7625 -2.3388
v  39.3544 107.6637 -2.3388
v  41.7778 107.6637 -2.3388
v  40.5661 109.7625 -2.3388
v  40.5661 109.7625 2.1649
# 166 vertices

vn -0.2735 0.1092 0.9556
vn 0.1582 0.1319 0.9786
vn 0.1775 -0.2141 0.9605
vn -0.2258 0.1607 0.9608
vn -0.1892 0.0517 0.9806
vn 0.1705 -0.3267 0.9296
vn 0.0159 -0.0002 0.9999
vn -0.2347 0.0000 0.9721
vn -0.2346 -0.0002 0.9721
vn -0.1891 0.0516 0.9806
vn -0.2348 -0.0002 0.9720
vn -0.2735 0.1093 0.9557
vn 0.0993 0.0513 0.9937
vn 0.0000 0.0000 1.0000
vn -0.1683 -0.1610 0.9725
vn -0.1738 0.1804 0.9681
vn -0.1781 0.2888 0.9407
vn -0.1215 -0.0749 0.9898
vn -0.0015 -0.0013 1.0000
vn -0.0128 0.0002 0.9999
vn 0.7368 0.5610 0.3774
vn 0.5761 -0.7424 0.3420
vn -0.5015 0.8133 0.2950
vn -0.7467 -0.4605 0.4800
vn 0.4452 -0.8507 0.2796
vn -0.6629 -0.6499 0.3717
vn 0.7409 0.3953 0.5430
vn -0.6556 0.6689 0.3505
vn -0.7069 -0.0006 0.7073
vn -0.7284 0.2324 0.6445
vn -0.9527 0.3040 -0.0000
vn -1.0000 -0.0008 0.0000
vn -0.5932 0.1895 0.7825
vn -0.7071 0.0000 0.7071
vn -1.0000 0.0000 -0.0000
vn -0.9525 0.3044 -0.0000
vn -0.5761 0.4100 0.7071
vn -0.8147 0.5799 -0.0000
vn 0.0012 -0.0009 1.0000
vn -0.2357 0.0000 0.9718
vn -0.0000 -0.0247 0.9997
vn -0.7042 0.0000 0.7100
vn -0.0563 -0.0000 0.9984
vn -0.2386 0.0029 0.9711
vn -0.1131 -0.2195 0.9690
vn -0.0281 -0.0487 0.9984
vn 0.1132 -0.2195 0.9690
vn 0.0281 -0.0487 0.9984
vn 0.2413 -0.0026 0.9704
vn 0.0563 -0.0000 0.9984
vn 0.1136 0.1969 0.9738
vn 0.0281 0.0487 0.9984
vn -0.1136 0.1969 0.9738
vn -0.0281 0.0487 0.9984
vn 0.3730 0.6460 0.6660
vn 0.7459 -0.0000 0.6660
vn -0.3730 0.6460 0.6660
vn -0.7459 -0.0000 0.6660
vn -0.3730 -0.6460 0.6660
vn 0.3730 -0.6460 0.6660
vn 0.0754 0.1306 0.9886
vn 0.1508 -0.0000 0.9886
vn -0.0754 0.1306 0.9886
vn -0.1508 0.0000 0.9886
vn -0.0754 -0.1306 0.9886
vn 0.0754 -0.1306 0.9886
vn -0.4010 -0.6946 0.5972
vn -0.8021 0.0000 0.5972
vn 0.4010 -0.6946 0.5972
vn 0.8021 0.0000 0.5972
vn 0.4010 0.6946 0.5972
vn -0.4010 0.6946 0.5972
vn -0.3962 -0.6862 0.6100
vn -0.7924 0.0000 0.6100
vn 0.3962 -0.6862 0.6100
vn 0.7924 0.0000 0.6100
vn 0.3962 0.6862 0.6100
vn -0.3962 0.6862 0.6100
vn -0.2735 0.1092 -0.9556
vn -0.2258 0.1607 -0.9608
vn 0.1775 -0.2141 -0.9605
vn 0.1582 0.1319 -0.9786
vn -0.2347 -0.0000 -0.9721
vn 0.0014 -0.0000 -1.0000
vn 0.0159 -0.0002 -0.9999
vn -0.2346 -0.0002 -0.9721
vn -0.2348 -0.0002 -0.9720
vn -0.1891 0.0516 -0.9806
vn -0.1892 0.0517 -0.9806
vn -0.2735 0.1093 -0.9557
vn 0.0993 0.0513 -0.9937
vn 0.1705 -0.3267 -0.9296
vn -0.0000 -0.0000 -1.0000
vn -0.1738 0.1804 -0.9681
vn -0.1682 -0.1608 -0.9726
vn -0.1781 0.2888 -0.9407
vn -0.1215 -0.0749 -0.9898
vn -0.0003 -0.0006 -1.0000
vn -0.0003 -0.0003 -1.0000
vn 0.5761 -0.7424 -0.3420
vn 0.7368 0.5610 -0.3774
vn -0.5015 0.8133 -0.2950
vn -0.7467 -0.4605 -0.4800
vn -0.6629 -0.6499 -0.3717
vn 0.4452 -0.8507 -0.2796
vn 0.7409 0.3953 -0.5430
vn -0.6556 0.6689 -0.3505
vn -0.7069 -0.0006 -0.7073
vn -0.7284 0.2324 -0.6445
vn -0.5932 0.1895 -0.7825
vn -0.7071 0.0000 -0.7071
vn -0.5761 0.4100 -0.7071
vn -0.2347 0.0000 -0.9721
vn 0.0004 -0.0004 -1.0000
vn -0.2357 0.0000 -0.9718
vn 0.0012 -0.0005 -1.0000
vn -0.7042 0.0000 -0.7100
vn -0.0563 -0.0000 -0.9984
vn -0.0290 -0.0502 -0.9983
vn -0.1128 -0.1967 -0.9740
vn -0.2344 0.0001 -0.9721
vn 0.0290 -0.0502 -0.9983
vn 0.1140 -0.1969 -0.9738
vn 0.0563 -0.0000 -0.9984
vn 0.2428 -0.0061 -0.9701
vn 0.0281 0.0487 -0.9984
vn 0.1136 0.1969 -0.9738
vn -0.0281 0.0487 -0.9984
vn -0.1136 0.1969 -0.9738
vn 0.7459 -0.0000 -0.6660
vn 0.3730 0.6460 -0.6660
vn -0.3730 0.6460 -0.6660
vn -0.7459 -0.0000 -0.6660
vn -0.3730 -0.6460 -0.6660
vn 0.3730 -0.6460 -0.6660
vn 0.1508 -0.0000 -0.9886
vn 0.0754 0.1306 -0.9886
vn -0.0754 0.1306 -0.9886
vn -0.1508 0.0000 -0.9886
vn -0.0754 -0.1306 -0.9886
vn 0.0754 -0.1306 -0.9886
vn -0.8021 0.0000 -0.5972
vn -0.4010 -0.6946 -0.5972
vn 0.4010 -0.6946 -0.5972
vn 0.8021 0.0000 -0.5972
vn 0.4010 0.6946 -0.5972
vn -0.4010 0.6946 -0.5972
vn -0.7924 0.0000 -0.6100
vn -0.3962 -0.6862 -0.6100
vn 0.3962 -0.6862 -0.6100
vn 0.7924 0.0000 -0.6100
vn 0.3962 0.6862 -0.6100
vn -0.3962 0.6862 -0.6100
vn -0.0000 -0.0000 1.0000
# 154 vertex normals

vt 0.2246 0.4933 0.0000
vt 0.1082 0.4351 0.0000
vt 0.2833 0.3975 0.0000
vt 0.3223 0.4237 0.0000
vt 0.4300 0.3471 0.0000
vt 0.4311 0.3045 0.0000
vt 0.5267 0.3033 0.0000
vt 0.5681 0.3471 0.0000
vt 0.0005 0.4931 0.0000
vt 0.2246 0.5181 0.0000
vt 0.0005 0.5180 0.0000
vt 0.3237 0.4476 0.0000
vt 0.5681 0.3719 0.0000
vt 0.4300 0.3719 0.0000
vt 0.3060 0.3920 0.0000
vt 0.4300 0.0092 0.0000
vt 0.4311 0.1934 0.0000
vt 0.3060 0.1974 0.0000
vt 0.1081 0.2854 0.0000
vt 0.0005 0.0094 0.0000
vt 0.2833 0.1974 0.0000
vt 0.6519 0.0092 0.0000
vt 0.5686 0.1916 0.0000
vt 0.5192 0.1923 0.0000
vt 0.8408 0.1509 0.0000
vt 0.6619 0.1509 0.0000
vt 0.6687 0.1377 0.0000
vt 0.8338 0.1373 0.0000
vt 0.6619 0.3199 0.0000
vt 0.6619 0.1702 0.0000
vt 0.6752 0.1744 0.0000
vt 0.6748 0.3128 0.0000
vt 0.8566 0.0798 0.0000
vt 0.6619 0.0798 0.0000
vt 0.6692 0.0657 0.0000
vt 0.8490 0.0651 0.0000
vt 0.8616 0.0413 0.0000
vt 0.6619 0.0413 0.0000
vt 0.6683 0.0281 0.0000
vt 0.8510 0.0287 0.0000
vt 0.9821 0.0371 0.0000
vt 0.8708 0.0371 0.0000
vt 0.8743 0.0238 0.0000
vt 0.9749 0.0239 0.0000
vt 0.5137 0.4648 0.0000
vt 0.3617 0.4649 0.0000
vt 0.3742 0.4507 0.0000
vt 0.5101 0.4499 0.0000
vt 0.8561 0.1153 0.0000
vt 0.6619 0.1153 0.0000
vt 0.6683 0.1022 0.0000
vt 0.8434 0.1029 0.0000
vt 0.7054 0.2955 0.0000
vt 0.7054 0.1702 0.0000
vt 0.7186 0.1770 0.0000
vt 0.7186 0.2887 0.0000
vt 0.6987 0.0076 0.0000
vt 0.4540 0.0076 0.0000
vt 0.4540 0.0041 0.0000
vt 0.6987 0.0041 0.0000
vt 0.2351 0.0076 0.0000
vt 0.0880 0.0076 0.0000
vt 0.0880 0.0041 0.0000
vt 0.2351 0.0041 0.0000
vt 0.3484 0.0076 0.0000
vt 0.3484 0.0041 0.0000
vt 0.3619 0.0041 0.0000
vt 0.2301 0.5426 0.0000
vt 0.0005 0.5424 0.0000
vt 0.3292 0.4720 0.0000
vt 0.4355 0.3964 0.0000
vt 0.5736 0.3964 0.0000
vt 0.5686 0.3028 0.0000
vt 0.6519 0.3009 0.0000
vt 0.6519 0.3471 0.0000
vt 0.6519 0.3719 0.0000
vt 0.5686 0.2744 0.0000
vt 0.0049 0.0076 0.0000
vt 0.0049 0.0041 0.0000
vt 0.6516 0.3964 0.0000
vt 0.5221 0.2143 0.0000
vt 0.5221 0.1983 0.0000
vt 0.5655 0.2234 0.0000
vt 0.5517 0.2313 0.0000
vt 0.5655 0.2734 0.0000
vt 0.5517 0.2654 0.0000
vt 0.5221 0.2984 0.0000
vt 0.5221 0.2825 0.0000
vt 0.4788 0.2734 0.0000
vt 0.4926 0.2654 0.0000
vt 0.4788 0.2234 0.0000
vt 0.4926 0.2313 0.0000
vt 0.7489 0.2268 0.0000
vt 0.7828 0.2268 0.0000
vt 0.7808 0.2349 0.0000
vt 0.7510 0.2349 0.0000
vt 0.5227 0.4400 0.0000
vt 0.5566 0.4400 0.0000
vt 0.5545 0.4482 0.0000
vt 0.5247 0.4482 0.0000
vt 0.5227 0.4269 0.0000
vt 0.5566 0.4269 0.0000
vt 0.5545 0.4351 0.0000
vt 0.5247 0.4351 0.0000
vt 0.8229 0.1528 0.0000
vt 0.8568 0.1528 0.0000
vt 0.8548 0.1610 0.0000
vt 0.8249 0.1610 0.0000
vt 0.5227 0.4139 0.0000
vt 0.5566 0.4139 0.0000
vt 0.5545 0.4220 0.0000
vt 0.5247 0.4220 0.0000
vt 0.5227 0.4530 0.0000
vt 0.5566 0.4530 0.0000
vt 0.5545 0.4612 0.0000
vt 0.5247 0.4612 0.0000
vt 0.8664 0.0666 0.0000
vt 0.8820 0.0397 0.0000
vt 0.8868 0.0480 0.0000
vt 0.8760 0.0666 0.0000
vt 0.9131 0.0397 0.0000
vt 0.9083 0.0480 0.0000
vt 0.9287 0.0666 0.0000
vt 0.9191 0.0666 0.0000
vt 0.9131 0.0936 0.0000
vt 0.9083 0.0853 0.0000
vt 0.8820 0.0936 0.0000
vt 0.8868 0.0853 0.0000
vt 0.8916 0.0563 0.0000
vt 0.8856 0.0666 0.0000
vt 0.9035 0.0563 0.0000
vt 0.9095 0.0666 0.0000
vt 0.9035 0.0769 0.0000
vt 0.8916 0.0769 0.0000
vt 0.8664 0.1425 0.0000
vt 0.8664 0.1310 0.0000
vt 0.8715 0.1310 0.0000
vt 0.8715 0.1425 0.0000
vt 0.9519 0.0578 0.0000
vt 0.9404 0.0578 0.0000
vt 0.9404 0.0527 0.0000
vt 0.9519 0.0527 0.0000
vt 0.8229 0.1877 0.0000
vt 0.8229 0.1768 0.0000
vt 0.8285 0.1768 0.0000
vt 0.8285 0.1877 0.0000
vt 0.8229 0.1659 0.0000
vt 0.8285 0.1659 0.0000
vt 0.8518 0.1709 0.0000
vt 0.8403 0.1709 0.0000
vt 0.8403 0.1659 0.0000
vt 0.8518 0.1659 0.0000
vt 0.9230 0.0903 0.0000
vt 0.9230 0.0788 0.0000
vt 0.9281 0.0788 0.0000
vt 0.9281 0.0903 0.0000
vt 0.7672 0.9502 0.0000
vt 0.6695 0.8806 0.0000
vt 0.7086 0.8544 0.0000
vt 0.8837 0.8920 0.0000
vt 0.4237 0.8040 0.0000
vt 0.4232 0.7597 0.0000
vt 0.4689 0.7602 0.0000
vt 0.9913 0.9500 0.0000
vt 0.9913 0.9749 0.0000
vt 0.7672 0.9750 0.0000
vt 0.6681 0.9045 0.0000
vt 0.5618 0.8040 0.0000
vt 0.5618 0.8288 0.0000
vt 0.4237 0.8288 0.0000
vt 0.6858 0.8489 0.0000
vt 0.5608 0.7614 0.0000
vt 0.5618 0.4661 0.0000
vt 0.6858 0.6543 0.0000
vt 0.5608 0.6503 0.0000
vt 0.8837 0.7423 0.0000
vt 0.9913 0.4663 0.0000
vt 0.7086 0.6543 0.0000
vt 0.4232 0.6485 0.0000
vt 0.3399 0.4661 0.0000
vt 0.8408 0.1180 0.0000
vt 0.8338 0.1316 0.0000
vt 0.6687 0.1312 0.0000
vt 0.6619 0.1180 0.0000
vt 0.6941 0.3199 0.0000
vt 0.6812 0.3128 0.0000
vt 0.6808 0.1744 0.0000
vt 0.6941 0.1702 0.0000
vt 0.8566 0.0440 0.0000
vt 0.8490 0.0588 0.0000
vt 0.6692 0.0581 0.0000
vt 0.6619 0.0440 0.0000
vt 0.8616 0.0092 0.0000
vt 0.8510 0.0219 0.0000
vt 0.6683 0.0225 0.0000
vt 0.6619 0.0092 0.0000
vt 0.9821 0.0049 0.0000
vt 0.9749 0.0180 0.0000
vt 0.8743 0.0182 0.0000
vt 0.8708 0.0049 0.0000
vt 0.8136 0.1529 0.0000
vt 0.8099 0.1677 0.0000
vt 0.6744 0.1669 0.0000
vt 0.6619 0.1528 0.0000
vt 0.8561 0.0832 0.0000
vt 0.8434 0.0956 0.0000
vt 0.6683 0.0963 0.0000
vt 0.6619 0.0832 0.0000
vt 0.7377 0.2955 0.0000
vt 0.7245 0.2887 0.0000
vt 0.7245 0.1770 0.0000
vt 0.7377 0.1702 0.0000
vt 0.6987 0.0005 0.0000
vt 0.4540 0.0005 0.0000
vt 0.2351 0.0005 0.0000
vt 0.0880 0.0005 0.0000
vt 0.3484 0.0005 0.0000
vt 0.9913 0.9993 0.0000
vt 0.7617 0.9995 0.0000
vt 0.6626 0.9289 0.0000
vt 0.5563 0.8533 0.0000
vt 0.4183 0.8533 0.0000
vt 0.3399 0.8040 0.0000
vt 0.3399 0.7578 0.0000
vt 0.3399 0.8288 0.0000
vt 0.4232 0.7314 0.0000
vt 0.0049 0.0005 0.0000
vt 0.3402 0.8533 0.0000
vt 0.4697 0.6712 0.0000
vt 0.4401 0.6882 0.0000
vt 0.4263 0.6803 0.0000
vt 0.4697 0.6552 0.0000
vt 0.4401 0.7224 0.0000
vt 0.4263 0.7303 0.0000
vt 0.4697 0.7394 0.0000
vt 0.4697 0.7553 0.0000
vt 0.4992 0.7224 0.0000
vt 0.5130 0.7303 0.0000
vt 0.4992 0.6882 0.0000
vt 0.5130 0.6803 0.0000
vt 0.5662 0.4090 0.0000
vt 0.5682 0.4008 0.0000
vt 0.5981 0.4008 0.0000
vt 0.6001 0.4090 0.0000
vt 0.8664 0.1044 0.0000
vt 0.8684 0.0962 0.0000
vt 0.8983 0.0962 0.0000
vt 0.9003 0.1044 0.0000
vt 0.5662 0.4220 0.0000
vt 0.5682 0.4139 0.0000
vt 0.5981 0.4139 0.0000
vt 0.6001 0.4220 0.0000
vt 0.5227 0.4090 0.0000
vt 0.5247 0.4008 0.0000
vt 0.5545 0.4008 0.0000
vt 0.5566 0.4090 0.0000
vt 0.9404 0.0478 0.0000
vt 0.9424 0.0397 0.0000
vt 0.9723 0.0397 0.0000
vt 0.9743 0.0478 0.0000
vt 0.8534 0.1261 0.0000
vt 0.8554 0.1180 0.0000
vt 0.8853 0.1180 0.0000
vt 0.8873 0.1261 0.0000
vt 0.7489 0.1972 0.0000
vt 0.7585 0.1972 0.0000
vt 0.7693 0.2158 0.0000
vt 0.7645 0.2241 0.0000
vt 0.7908 0.2158 0.0000
vt 0.7956 0.2241 0.0000
vt 0.8016 0.1972 0.0000
vt 0.8112 0.1972 0.0000
vt 0.7908 0.1785 0.0000
vt 0.7956 0.1702 0.0000
vt 0.7693 0.1785 0.0000
vt 0.7645 0.1702 0.0000
vt 0.7681 0.1972 0.0000
vt 0.7741 0.2075 0.0000
vt 0.7860 0.2075 0.0000
vt 0.7920 0.1972 0.0000
vt 0.7860 0.1868 0.0000
vt 0.7741 0.1868 0.0000
vt 0.6670 0.3557 0.0000
vt 0.6619 0.3557 0.0000
vt 0.6619 0.3443 0.0000
vt 0.6670 0.3443 0.0000
vt 0.7169 0.2964 0.0000
vt 0.7169 0.3014 0.0000
vt 0.7054 0.3014 0.0000
vt 0.7054 0.2964 0.0000
vt 0.5718 0.4488 0.0000
vt 0.5662 0.4488 0.0000
vt 0.5662 0.4379 0.0000
vt 0.5718 0.4379 0.0000
vt 0.5662 0.4269 0.0000
vt 0.5718 0.4269 0.0000
vt 0.9388 0.0701 0.0000
vt 0.9388 0.0752 0.0000
vt 0.9274 0.0752 0.0000
vt 0.9274 0.0701 0.0000
vt 0.9083 0.1093 0.0000
vt 0.9083 0.1143 0.0000
vt 0.8969 0.1143 0.0000
vt 0.8969 0.1093 0.0000
vt 0.3742 0.4443 0.0000
vt 0.5101 0.4450 0.0000
vt 0.9331 0.0752 0.0000
vt 0.7112 0.3014 0.0000
vt 0.6619 0.3500 0.0000
vt 0.9026 0.1143 0.0000
vt 0.9281 0.0845 0.0000
vt 0.8715 0.1368 0.0000
vt 0.9461 0.0527 0.0000
vt 0.8460 0.1659 0.0000
# 314 texture coords

o DoorL
g DoorL
usemtl wire_153228184
s 1
f 1/1/1 2/2/2 3/3/3 4/4/4 
f 5/5/5 6/6/6 7/7/7 8/8/8 
f 9/9/9 1/1/1 10/10/10 11/11/11 
f 1/1/1 4/4/4 12/12/4 10/10/10 
f 5/5/5 8/8/8 13/13/8 14/14/12 
f 2/2/2 1/1/1 9/9/9 
f 15/15/13 6/6/6 5/5/5 4/4/4 
f 4/4/4 5/5/5 14/14/12 12/12/4 
f 16/16/14 17/17/15 18/18/16 
f 19/19/17 2/2/2 9/9/9 20/20/14 
f 19/19/17 20/20/14 16/16/14 21/21/18 
f 16/16/14 22/22/14 23/23/19 24/24/20 
f 3/3/3 15/15/13 4/4/4 
f 3/3/3 21/21/18 18/18/16 15/15/13 
f 21/21/18 16/16/14 18/18/16 
s 2
f 3/25/3 2/26/2 25/27/21 26/28/22 
s 4
f 2/29/2 19/30/17 27/31/23 25/32/21 
s 2
f 19/33/17 21/34/18 28/35/24 27/36/23 
s 4
f 21/37/18 3/38/3 26/39/22 28/40/24 
s 2
f 17/41/15 6/42/6 29/43/25 30/44/26 
s 4
f 6/45/6 15/46/13 31/47/27 29/48/25 
s 2
f 15/49/13 18/50/16 32/51/28 31/52/27 
s 4
f 18/53/16 17/54/15 30/55/26 32/56/28 
s 2
f 33/57/29 34/58/30 35/59/31 36/60/32 
f 37/61/33 38/62/34 39/63/35 40/64/36 
f 41/65/37 37/61/33 40/64/36 42/66/38 
f 41/65/37 42/66/38 43/67/38 
s 1
f 11/11/11 10/10/10 34/68/30 33/69/29 
f 10/10/10 12/12/4 41/70/37 34/68/30 
f 12/12/4 14/14/12 37/71/33 41/70/37 
f 14/14/12 13/13/8 38/72/34 37/71/33 
f 44/73/39 45/74/14 46/75/8 8/8/8 
f 8/8/8 46/75/8 47/76/40 13/13/8 
f 45/74/14 44/73/39 48/77/41 
s 2
f 38/62/34 49/78/42 50/79/35 39/63/35 
s 1
f 13/13/8 47/76/40 49/80/42 38/72/34 
s 256
f 51/81/43 52/82/44 53/83/45 54/84/46 
f 54/84/46 53/83/45 55/85/47 56/86/48 
f 56/86/48 55/85/47 57/87/49 58/88/50 
f 58/88/50 57/87/49 59/89/51 60/90/52 
f 60/90/52 59/89/51 61/91/53 62/92/54 
f 62/92/54 61/91/53 52/82/44 51/81/43 
s 2
f 51/93/43 54/94/46 63/95/55 64/96/56 
f 54/97/46 56/98/48 65/99/57 63/100/55 
f 56/101/48 58/102/50 66/103/58 65/104/57 
f 58/105/50 60/106/52 67/107/59 66/108/58 
f 60/109/52 62/110/54 68/111/60 67/112/59 
f 62/113/54 51/114/43 64/115/56 68/116/60 
f 64/117/56 63/118/55 69/119/61 70/120/62 
f 63/118/55 65/121/57 71/122/63 69/119/61 
f 65/121/57 66/123/58 72/124/64 71/122/63 
f 66/123/58 67/125/59 73/126/65 72/124/64 
f 67/125/59 68/127/60 74/128/66 73/126/65 
f 68/127/60 64/117/56 70/120/62 74/128/66 
s 1
f 70/120/62 69/119/61 75/129/67 76/130/68 
f 69/119/61 71/122/63 77/131/69 75/129/67 
f 71/122/63 72/124/64 78/132/70 77/131/69 
f 72/124/64 73/126/65 79/133/71 78/132/70 
f 73/126/65 74/128/66 80/134/72 79/133/71 
f 74/128/66 70/120/62 76/130/68 80/134/72 
s 2
f 76/135/68 75/136/67 81/137/73 82/138/74 
s 4
f 75/139/67 77/140/69 83/141/75 81/142/73 
s 2
f 77/143/69 78/144/70 84/145/76 83/146/75 
s 4
f 78/144/70 79/147/71 85/148/77 84/145/76 
s 2
f 79/149/71 80/150/72 86/151/78 85/152/77 
s 4
f 80/153/72 76/154/68 82/155/74 86/156/78 
s 1
f 53/83/45 52/82/44 23/23/19 
f 55/85/47 48/77/41 44/73/39 
f 57/87/49 7/7/7 6/6/6 
f 59/89/51 57/87/49 6/6/6 
f 61/91/53 59/89/51 6/6/6 17/17/15 
f 52/82/44 24/24/20 23/23/19 
s 2
f 35/59/31 34/58/30 41/65/37 43/67/38 
s 1
f 87/157/79 88/158/80 89/159/81 90/160/82 
f 91/161/83 92/162/84 93/163/85 
f 94/164/86 95/165/87 96/166/88 87/157/79 
f 87/157/79 96/166/88 97/167/80 88/158/80 
f 98/168/89 99/169/90 100/170/83 91/161/83 
f 90/160/82 94/164/86 87/157/79 
f 101/171/91 88/158/80 98/168/89 102/172/92 
f 88/158/80 97/167/80 99/169/90 98/168/89 
f 103/173/93 104/174/94 105/175/95 
f 106/176/96 107/177/93 94/164/86 90/160/82 
f 106/176/96 108/178/97 103/173/93 107/177/93 
f 105/175/95 109/179/98 110/180/99 103/173/93 
f 89/159/81 88/158/80 101/171/91 
f 89/159/81 101/171/91 104/174/94 108/178/97 
f 108/178/97 104/174/94 103/173/93 
s 2
f 89/181/81 111/182/100 112/183/101 90/184/82 
s 4
f 90/185/82 112/186/101 113/187/102 106/188/96 
s 2
f 106/189/96 113/190/102 114/191/103 108/192/97 
s 4
f 108/193/97 114/194/103 111/195/100 89/196/81 
s 2
f 105/197/95 115/198/104 116/199/105 102/200/92 
s 4
f 102/201/92 116/202/105 117/203/106 101/204/91 
s 2
f 101/205/91 117/206/106 118/207/107 104/208/94 
s 4
f 104/209/94 118/210/107 115/211/104 105/212/95 
s 2
f 119/213/108 36/60/32 35/59/31 120/214/109 
f 121/215/110 40/64/36 39/63/35 122/216/111 
f 123/217/112 42/66/38 40/64/36 121/215/110 
f 123/217/112 43/67/38 42/66/38 
s 1
f 95/165/87 119/218/108 120/219/109 96/166/88 
f 96/166/88 120/219/109 123/220/112 97/167/80 
f 97/167/80 123/220/112 121/221/110 99/169/90 
f 99/169/90 121/221/110 122/222/111 100/170/83 
f 92/162/84 91/161/83 124/223/113 125/224/114 
f 91/161/83 100/170/83 126/225/115 124/223/113 
f 109/179/98 127/226/116 125/224/114 110/180/99 
s 2
f 122/216/111 39/63/35 50/79/35 128/227/117 
s 1
f 100/170/83 122/222/111 128/228/117 126/225/115 
s 65536
f 129/229/118 130/230/119 131/231/120 132/232/121 
f 130/230/119 133/233/122 134/234/123 131/231/120 
f 133/233/122 135/235/124 136/236/125 134/234/123 
f 135/235/124 137/237/126 138/238/127 136/236/125 
f 137/237/126 139/239/128 140/240/129 138/238/127 
f 139/239/128 129/229/118 132/232/121 140/240/129 
s 2
f 129/241/118 141/242/130 142/243/131 130/244/119 
f 130/245/119 142/246/131 143/247/132 133/248/122 
f 133/249/122 143/250/132 144/251/133 135/252/124 
f 135/253/124 144/254/133 145/255/134 137/256/126 
f 137/257/126 145/258/134 146/259/135 139/260/128 
f 139/261/128 146/262/135 141/263/130 129/264/118 
f 141/265/130 147/266/136 148/267/137 142/268/131 
f 142/268/131 148/267/137 149/269/138 143/270/132 
f 143/270/132 149/269/138 150/271/139 144/272/133 
f 144/272/133 150/271/139 151/273/140 145/274/134 
f 145/274/134 151/273/140 152/275/141 146/276/135 
f 146/276/135 152/275/141 147/266/136 141/265/130 
s 1
f 147/266/136 153/277/142 154/278/143 148/267/137 
f 148/267/137 154/278/143 155/279/144 149/269/138 
f 149/269/138 155/279/144 156/280/145 150/271/139 
f 150/271/139 156/280/145 157/281/146 151/273/140 
f 151/273/140 157/281/146 158/282/147 152/275/141 
f 152/275/141 158/282/147 153/277/142 147/266/136 
s 2
f 153/283/142 159/284/148 160/285/149 154/286/143 
s 4
f 154/287/143 160/288/149 161/289/150 155/290/144 
s 2
f 155/291/144 161/292/150 162/293/151 156/294/145 
s 4
f 156/294/145 162/293/151 163/295/152 157/296/146 
s 2
f 157/297/146 163/298/152 164/299/153 158/300/147 
s 4
f 158/301/147 164/302/153 159/303/148 153/304/142 
s 1
f 131/231/120 109/179/98 132/232/121 
f 134/234/123 127/226/116 109/179/98 131/231/120 
f 136/236/125 93/163/85 92/162/84 134/234/123 
f 138/238/127 102/172/92 136/236/125 
f 140/240/129 105/175/95 102/172/92 138/238/127 
f 132/232/121 105/175/95 140/240/129 
s 2
f 35/59/31 43/67/38 123/217/112 120/214/109 
f 27/36/23 28/35/24 114/191/103 113/190/102 
f 30/44/26 29/43/25 116/199/105 115/198/104 
s 4
f 29/48/25 31/47/27 117/305/106 116/306/105 
s 2
f 31/52/27 32/51/28 118/207/107 117/206/106 
s 4
f 32/56/28 30/55/26 115/211/104 118/210/107 
s 2
f 112/183/101 111/182/100 26/28/22 25/27/21 
s 4
f 113/187/102 112/186/101 25/32/21 27/31/23 
f 111/195/100 114/194/103 28/40/24 26/39/22 
s 1
f 164/299/153 163/298/152 165/307/93 
f 163/295/152 162/293/151 165/293/93 
f 162/293/151 161/292/150 165/293/93 
f 161/289/150 160/288/149 165/308/93 
f 160/285/149 159/284/148 165/309/93 
f 159/303/148 164/302/153 165/310/93 
f 86/156/78 82/155/74 166/311/154 
f 82/138/74 81/137/73 166/312/154 
f 81/142/73 83/141/75 166/313/154 
f 83/146/75 84/145/76 166/145/154 
f 84/145/76 85/148/77 166/145/154 
f 85/152/77 86/151/78 166/314/154 
f 132/232/121 109/179/98 105/175/95 
f 136/236/125 102/172/92 93/163/85 
f 93/163/85 102/172/92 98/168/89 91/161/83 
f 134/234/123 92/162/84 127/226/116 
f 127/226/116 92/162/84 125/224/114 
f 55/85/47 53/83/45 23/23/19 48/77/41 
f 48/77/41 23/23/19 22/22/14 45/74/14 
f 57/87/49 55/85/47 44/73/39 7/7/7 
f 7/7/7 44/73/39 8/8/8 
f 52/82/44 61/91/53 17/17/15 24/24/20 
f 24/24/20 17/17/15 16/16/14 
# 139 polygons - 38 triangles

#
# object GlassL
#

v  62.5613 91.8163 -0.3483
v  33.5567 17.9900 -0.3484
v  -2.0595 18.7815 -0.3484
v  16.3988 91.8163 -0.3483
v  62.5613 91.8163 0.8572
v  16.3988 91.8163 0.8572
v  -2.0595 18.7815 0.8572
v  33.5567 17.9900 0.8572
# 8 vertices

vn 0.0000 0.0000 -1.0000
vn -0.0000 -0.0000 1.0000
# 2 vertex normals

vt 0.0000 1.0000 0.0000
vt 0.0000 0.0000 0.0000
vt 1.0000 0.0000 0.0000
vt 1.0000 1.0000 0.0000
# 4 texture coords

o GlassL
g GlassL
usemtl wire_154185229
s 1
f 167/315/155 168/316/155 169/317/155 170/318/155 
f 171/315/156 172/318/156 173/317/156 174/316/156 
# 2 polygons

