# 3ds Max Wavefront OBJ Exporter v0.99 - (c)2007 guruware
# File Created: 15.10.2022 21:23:57

mtllib DoorR.mtl

#
# object DoorR
#

v  -71.5780 136.9859 6.2152
v  -71.4698 114.4910 6.2152
v  -18.1316 114.3342 6.2152
v  -25.6353 136.9859 6.2152
v  25.6176 89.8314 6.2152
v  13.3692 114.3318 6.2152
v  5.4657 77.4865 6.2152
v  13.7874 73.2106 6.2152
v  -5.1460 46.6103 6.2152
v  -14.1053 46.3867 6.2152
v  -14.8688 -0.0834 6.2152
v  -5.1460 -0.0834 6.2152
v  25.5773 136.9859 6.2152
v  30.8513 89.8314 1.1338
v  30.8109 136.9859 1.1338
v  19.2387 73.5164 1.1338
v  0.0876 -0.0834 1.1338
v  0.0876 46.6103 1.1338
v  10.5354 136.9859 6.2152
v  -37.4854 46.3867 6.2152
v  -38.2489 -0.0834 6.2152
v  4.3089 72.7046 6.2152
v  10.9855 69.2741 6.2152
v  16.0015 68.9683 1.1338
v  -71.5930 72.7072 6.2152
v  -71.6093 46.6103 6.2152
v  -36.6457 72.7059 6.2152
v  -71.5841 77.4891 6.2152
v  -36.6455 77.4879 6.2152
v  -71.6093 -0.0834 6.2152
v  10.4668 111.6171 0.9264
v  2.9260 80.2016 0.9264
v  -16.4574 111.6191 0.9264
v  -32.2430 80.2027 0.9264
v  -15.4793 49.1017 0.9264
v  -34.5985 49.1017 0.9264
v  -1.0556 69.9898 0.9264
v  -34.0924 69.9909 0.9264
v  29.5692 137.2643 1.1338
v  29.6095 90.1097 1.1338
v  29.6095 90.1097 -1.1338
v  29.5692 137.2643 -1.1338
v  -1.1541 46.8886 1.1338
v  -1.1541 0.1949 1.1338
v  -1.1541 0.1949 -1.1338
v  -1.1541 46.8886 -1.1338
v  14.7597 69.2466 1.1338
v  14.7597 69.2466 -1.1338
v  17.9969 73.7948 1.1338
v  17.9969 73.7948 -1.1338
v  -71.5780 136.9859 -6.2152
v  -25.6353 136.9859 -6.2152
v  -18.1316 114.3342 -6.2152
v  -71.4698 114.4911 -6.2152
v  25.6176 89.8314 -6.2152
v  13.7874 73.2106 -6.2152
v  5.4657 77.4865 -6.2152
v  13.3692 114.3318 -6.2152
v  -5.1460 46.6103 -6.2152
v  -5.1460 -0.0834 -6.2152
v  -14.8688 -0.0834 -6.2152
v  -14.1053 46.3867 -6.2152
v  25.5773 136.9859 -6.2152
v  30.8109 136.9859 -1.1338
v  30.8513 89.8314 -1.1338
v  19.2387 73.5164 -1.1338
v  0.0876 46.6103 -1.1338
v  0.0876 -0.0834 -1.1338
v  10.5354 136.9859 -6.2152
v  -38.2489 -0.0834 -6.2152
v  -37.4854 46.3867 -6.2152
v  4.3089 72.7046 -6.2152
v  10.9855 69.2741 -6.2152
v  16.0015 68.9683 -1.1338
v  -71.5930 72.7072 -6.2152
v  -36.6457 72.7059 -6.2152
v  -71.6093 46.6103 -6.2152
v  -36.6455 77.4879 -6.2152
v  -71.5841 77.4891 -6.2152
v  -71.6093 -0.0834 -6.2152
v  2.9260 80.2016 -0.9264
v  10.4668 111.6171 -0.9264
v  -16.4574 111.6191 -0.9264
v  -32.2430 80.2027 -0.9264
v  -34.5985 49.1017 -0.9264
v  -15.4793 49.1017 -0.9264
v  -1.0556 69.9898 -0.9264
v  -34.0924 69.9909 -0.9264
# 88 vertices

vn 0.0000 -0.0000 1.0000
vn 0.1235 -0.2004 0.9719
vn 0.2735 -0.1092 0.9556
vn -0.1029 -0.0864 0.9909
vn -0.1185 0.1420 0.9827
vn 0.2258 -0.1607 0.9608
vn 0.1892 -0.0517 0.9806
vn -0.1196 0.2306 0.9657
vn 0.2347 -0.0000 0.9721
vn 0.2346 0.0002 0.9721
vn 0.9439 -0.2574 -0.2066
vn 0.8766 0.0008 -0.4813
vn 0.7828 -0.5572 -0.2772
vn 0.9978 -0.0000 0.0661
vn 0.8828 -0.3527 -0.3103
vn 0.1096 0.1054 0.9884
vn -0.0594 -0.0307 0.9978
vn 0.1151 -0.1197 0.9861
vn 0.0747 0.0461 0.9961
vn -0.6565 -0.4693 0.5906
vn -0.5069 0.6759 0.5350
vn 0.4615 -0.7484 0.4763
vn 0.6105 0.3765 0.6968
vn -0.4157 0.7880 0.4542
vn 0.5799 0.5751 0.5771
vn -0.5783 -0.3171 0.7516
vn 0.5856 -0.5916 0.5542
vn 0.7585 0.0006 -0.6516
vn 0.5931 -0.1892 -0.7826
vn 0.5931 -0.1892 0.7826
vn 0.7585 0.0006 0.6516
vn 0.7283 -0.2327 -0.6446
vn 0.6593 0.0000 -0.7519
vn 0.6593 -0.0000 0.7519
vn 0.7283 -0.2327 0.6446
vn 0.5761 -0.4100 -0.7071
vn 0.5761 -0.4100 0.7071
vn 0.5760 -0.4100 -0.7071
vn 0.5760 -0.4100 0.7071
vn 0.0000 0.0000 -1.0000
vn 0.1235 -0.2004 -0.9719
vn 0.2735 -0.1092 -0.9556
vn 0.2258 -0.1607 -0.9608
vn -0.1185 0.1420 -0.9827
vn -0.1029 -0.0864 -0.9909
vn 0.1892 -0.0517 -0.9806
vn 0.2347 0.0000 -0.9721
vn -0.1196 0.2306 -0.9657
vn 0.2346 0.0002 -0.9721
vn 0.8766 0.0007 0.4813
vn 0.9439 -0.2574 0.2066
vn 0.7828 -0.5572 0.2772
vn 0.8828 -0.3527 0.3103
vn 0.9978 0.0000 -0.0661
vn 0.1096 0.1054 -0.9884
vn -0.0594 -0.0307 -0.9978
vn 0.1151 -0.1197 -0.9861
vn 0.0747 0.0461 -0.9961
vn -0.5069 0.6759 -0.5350
vn -0.6565 -0.4693 -0.5906
vn 0.4615 -0.7484 -0.4763
vn 0.6105 0.3765 -0.6968
vn 0.5799 0.5751 -0.5771
vn -0.4157 0.7880 -0.4542
vn -0.5783 -0.3171 -0.7516
vn 0.5856 -0.5916 -0.5542
# 66 vertex normals

vt 0.0821 0.0210 0.0000
vt 0.1868 0.0212 0.0000
vt 0.1882 0.2693 0.0000
vt 0.0827 0.2347 0.0000
vt 0.3029 0.4722 0.0000
vt 0.1887 0.4158 0.0000
vt 0.3601 0.3786 0.0000
vt 0.3800 0.4173 0.0000
vt 0.5041 0.3293 0.0000
vt 0.5050 0.2876 0.0000
vt 0.7211 0.2825 0.0000
vt 0.7216 0.3276 0.0000
vt 0.0838 0.4733 0.0000
vt 0.3039 0.4994 0.0000
vt 0.0840 0.5007 0.0000
vt 0.3805 0.4456 0.0000
vt 0.7219 0.3549 0.0000
vt 0.5052 0.3567 0.0000
vt 0.0833 0.4031 0.0000
vt 0.5042 0.1785 0.0000
vt 0.7205 0.1738 0.0000
vt 0.3824 0.3732 0.0000
vt 0.3983 0.4043 0.0000
vt 0.4017 0.4306 0.0000
vt 0.3812 0.0201 0.0000
vt 0.5026 0.0197 0.0000
vt 0.3817 0.1827 0.0000
vt 0.3590 0.0202 0.0000
vt 0.3594 0.1827 0.0000
vt 0.7197 0.0186 0.0000
vt 0.0277 0.5341 0.0000
vt 0.0291 0.3587 0.0000
vt 0.0456 0.3740 0.0000
vt 0.0470 0.5244 0.0000
vt 0.8394 0.3511 0.0000
vt 0.8394 0.2046 0.0000
vt 0.8575 0.2124 0.0000
vt 0.8575 0.3376 0.0000
vt 0.0776 0.0549 0.0000
vt 0.0776 0.2468 0.0000
vt 0.0595 0.2263 0.0000
vt 0.0595 0.0627 0.0000
vt 0.8394 0.2010 0.0000
vt 0.8394 0.0050 0.0000
vt 0.8575 0.0169 0.0000
vt 0.8575 0.1805 0.0000
vt 0.9709 0.4449 0.0000
vt 0.8621 0.4449 0.0000
vt 0.8685 0.4268 0.0000
vt 0.9574 0.4268 0.0000
vt 0.9395 0.1545 0.0000
vt 0.9392 0.0050 0.0000
vt 0.9578 0.0297 0.0000
vt 0.9575 0.1478 0.0000
vt 0.8893 0.1956 0.0000
vt 0.8893 0.0050 0.0000
vt 0.9074 0.0169 0.0000
vt 0.9074 0.1706 0.0000
vt 0.9981 0.2680 0.0000
vt 0.9984 0.3906 0.0000
vt 0.9801 0.3776 0.0000
vt 0.9802 0.2803 0.0000
vt 0.6885 0.0061 0.0000
vt 0.4691 0.0061 0.0000
vt 0.4691 0.0005 0.0000
vt 0.6885 0.0005 0.0000
vt 0.2223 0.0061 0.0000
vt 0.0050 0.0061 0.0000
vt 0.0050 0.0005 0.0000
vt 0.2223 0.0005 0.0000
vt 0.3500 0.0061 0.0000
vt 0.3500 0.0005 0.0000
vt 0.3759 0.0061 0.0000
vt 0.3759 0.0005 0.0000
vt 0.0640 0.9972 0.0000
vt 0.0645 0.7834 0.0000
vt 0.1700 0.7488 0.0000
vt 0.1687 0.9970 0.0000
vt 0.2847 0.5459 0.0000
vt 0.3618 0.6008 0.0000
vt 0.3420 0.6396 0.0000
vt 0.1706 0.6024 0.0000
vt 0.4859 0.6888 0.0000
vt 0.7034 0.6906 0.0000
vt 0.7030 0.7357 0.0000
vt 0.4868 0.7306 0.0000
vt 0.0656 0.5449 0.0000
vt 0.0659 0.5175 0.0000
vt 0.2858 0.5187 0.0000
vt 0.3624 0.5725 0.0000
vt 0.4871 0.6615 0.0000
vt 0.7038 0.6633 0.0000
vt 0.0651 0.6150 0.0000
vt 0.7023 0.8443 0.0000
vt 0.4861 0.8396 0.0000
vt 0.3643 0.6450 0.0000
vt 0.3801 0.6138 0.0000
vt 0.3835 0.5875 0.0000
vt 0.3631 0.9980 0.0000
vt 0.3636 0.8354 0.0000
vt 0.4844 0.9984 0.0000
vt 0.3413 0.8354 0.0000
vt 0.3408 0.9980 0.0000
vt 0.7016 0.9995 0.0000
vt 0.4434 0.4993 0.0000
vt 0.4337 0.5186 0.0000
vt 0.2833 0.5172 0.0000
vt 0.2680 0.5007 0.0000
vt 0.8802 0.3511 0.0000
vt 0.8621 0.3376 0.0000
vt 0.8621 0.2124 0.0000
vt 0.8802 0.2046 0.0000
vt 0.0050 0.2953 0.0000
vt 0.0232 0.3030 0.0000
vt 0.0232 0.4666 0.0000
vt 0.0050 0.4871 0.0000
vt 0.8802 0.2010 0.0000
vt 0.8621 0.1805 0.0000
vt 0.8621 0.0169 0.0000
vt 0.8802 0.0050 0.0000
vt 0.9709 0.4041 0.0000
vt 0.9574 0.4222 0.0000
vt 0.8685 0.4222 0.0000
vt 0.8621 0.4041 0.0000
vt 0.4492 0.5223 0.0000
vt 0.4425 0.5403 0.0000
vt 0.3244 0.5406 0.0000
vt 0.2998 0.5220 0.0000
vt 0.9301 0.1956 0.0000
vt 0.9120 0.1706 0.0000
vt 0.9120 0.0169 0.0000
vt 0.9301 0.0050 0.0000
vt 0.9576 0.2680 0.0000
vt 0.9755 0.2803 0.0000
vt 0.9757 0.3776 0.0000
vt 0.9573 0.3906 0.0000
vt 0.8396 0.6428 0.0000
vt 0.8394 0.4234 0.0000
vt 0.8452 0.4247 0.0000
vt 0.8454 0.6441 0.0000
vt 0.8934 0.3475 0.0000
vt 0.8992 0.3488 0.0000
vt 0.9085 0.3263 0.0000
vt 0.9143 0.3276 0.0000
vt 0.9825 0.2223 0.0000
vt 0.9883 0.2236 0.0000
vt 0.9825 0.0050 0.0000
vt 0.9883 0.0063 0.0000
vt 0.0072 0.6616 0.0000
vt 0.0729 0.4545 0.0000
vt 0.0788 0.4551 0.0000
vt 0.0131 0.6622 0.0000
vt 0.0354 0.3324 0.0000
vt 0.0413 0.3330 0.0000
vt 0.0278 0.3076 0.0000
vt 0.0337 0.3082 0.0000
vt 0.0005 0.2186 0.0000
vt 0.0064 0.2191 0.0000
vt 0.0672 0.0096 0.0000
vt 0.0731 0.0101 0.0000
vt 0.0685 0.2590 0.0000
vt 0.0731 0.2590 0.0000
vt 0.0731 0.4093 0.0000
vt 0.0685 0.4093 0.0000
vt 0.0005 0.0096 0.0000
vt 0.0051 0.0096 0.0000
vt 0.0051 0.1732 0.0000
vt 0.0005 0.1732 0.0000
vt 0.2093 0.0141 0.0000
vt 0.0912 0.0141 0.0000
vt 0.0912 0.0096 0.0000
vt 0.2093 0.0096 0.0000
# 172 texture coords

o DoorR
g DoorR
usemtl wire_153228184
s 1
f 1/1/1 2/2/1 3/3/2 4/4/1 
f 5/5/3 6/6/4 7/7/5 8/8/6 
f 9/9/7 10/10/8 11/11/1 12/12/9 
f 13/13/10 5/5/3 14/14/11 15/15/12 
f 5/5/3 8/8/6 16/16/13 14/14/11 
f 9/9/7 12/12/9 17/17/14 18/18/15 
f 6/6/4 5/5/3 13/13/10 19/19/1 
f 10/10/8 20/20/16 21/21/1 11/11/1 
f 22/22/17 10/10/8 9/9/7 23/23/6 
f 23/23/6 9/9/7 18/18/15 24/24/13 
f 25/25/1 26/26/1 20/20/16 27/27/18 
f 3/3/2 6/6/4 19/19/1 4/4/1 
f 3/3/2 2/2/1 28/28/1 29/29/19 
f 20/20/16 26/26/1 30/30/1 21/21/1 
f 8/8/6 7/7/5 22/22/17 23/23/6 
f 16/16/13 8/8/6 23/23/6 24/24/13 
f 7/7/5 29/29/19 27/27/18 22/22/17 
f 29/29/19 28/28/1 25/25/1 27/27/18 
s off
f 7/31/5 6/32/4 31/33/20 32/34/21 
f 6/35/4 3/36/2 33/37/22 31/38/20 
f 3/39/2 29/40/19 34/41/23 33/42/22 
f 29/43/19 7/44/5 32/45/21 34/46/23 
f 20/47/16 10/48/8 35/49/24 36/50/25 
f 10/51/8 22/52/17 37/53/26 35/54/24 
f 22/55/17 27/56/18 38/57/27 37/58/26 
f 27/59/18 20/60/16 36/61/25 38/62/27 
f 39/63/28 40/64/29 41/65/30 42/66/31 
f 43/67/32 44/68/33 45/69/34 46/70/35 
f 47/71/36 43/67/32 46/70/35 48/72/37 
f 49/73/38 47/71/36 48/72/37 50/74/39 
s 1
f 51/75/40 52/76/40 53/77/41 54/78/40 
f 55/79/42 56/80/43 57/81/44 58/82/45 
f 59/83/46 60/84/47 61/85/40 62/86/48 
f 63/87/49 64/88/50 65/89/51 55/79/42 
f 55/79/42 65/89/51 66/90/52 56/80/43 
f 59/83/46 67/91/53 68/92/54 60/84/47 
f 58/82/45 69/93/40 63/87/49 55/79/42 
f 62/86/48 61/85/40 70/94/40 71/95/55 
f 72/96/56 73/97/43 59/83/46 62/86/48 
f 73/97/43 74/98/52 67/91/53 59/83/46 
f 75/99/40 76/100/57 71/95/55 77/101/40 
f 53/77/41 52/76/40 69/93/40 58/82/45 
f 53/77/41 78/102/58 79/103/40 54/78/40 
f 71/95/55 70/94/40 80/104/40 77/101/40 
f 56/80/43 73/97/43 72/96/56 57/81/44 
f 66/90/52 74/98/52 73/97/43 56/80/43 
f 57/81/44 72/96/56 76/100/57 78/102/58 
f 78/102/58 76/100/57 75/99/40 79/103/40 
s off
f 57/105/44 81/106/59 82/107/60 58/108/45 
f 58/109/45 82/110/60 83/111/61 53/112/41 
f 53/113/41 83/114/61 84/115/62 78/116/58 
f 78/117/58 84/118/62 81/119/59 57/120/44 
f 71/121/55 85/122/63 86/123/64 62/124/48 
f 62/125/48 86/126/64 87/127/65 72/128/56 
f 72/129/56 87/130/65 88/131/66 76/132/57 
f 76/133/57 88/134/66 85/135/63 71/136/55 
f 41/65/30 40/64/29 49/73/38 50/74/39 
f 15/137/12 14/138/11 40/139/29 39/140/28 
f 14/138/11 16/141/13 49/142/38 40/139/29 
f 16/141/13 24/143/13 47/144/36 49/142/38 
f 24/143/13 18/145/15 43/146/32 47/144/36 
f 18/145/15 17/147/14 44/148/33 43/146/32 
f 68/149/54 67/150/53 46/151/35 45/152/34 
f 67/150/53 74/153/52 48/154/37 46/151/35 
f 74/153/52 66/155/52 50/156/39 48/154/37 
f 66/155/52 65/157/51 41/158/30 50/156/39 
f 65/157/51 64/159/50 42/160/31 41/158/30 
s 1
f 81/119/59 84/118/62 34/46/23 32/45/21 
f 83/111/61 82/110/60 31/38/20 33/37/22 
s off
f 31/161/20 82/162/60 81/163/59 32/164/21 
f 34/165/23 84/166/62 83/167/61 33/168/22 
s 1
f 86/123/64 85/122/63 36/50/25 35/49/24 
s off
f 35/169/24 37/170/26 87/171/65 86/172/64 
f 37/58/26 38/57/27 88/131/66 87/130/65 
f 36/61/25 85/135/63 88/134/66 38/62/27 
# 75 polygons

#
# object GlassR
#

v  -49.8266 44.8090 -0.3484
v  -20.8219 118.6353 -0.3484
v  14.7942 117.8437 -0.3484
v  -3.6640 44.8090 -0.3484
v  -49.8266 44.8090 0.8572
v  -3.6640 44.8090 0.8572
v  14.7942 117.8437 0.8572
v  -20.8219 118.6353 0.8572
# 8 vertices

vn 0.0000 -0.0000 -1.0000
vn -0.0000 -0.0000 -1.0000
vn 0.0000 0.0000 1.0000
vn -0.0000 0.0000 1.0000
# 4 vertex normals

vt 0.0000 1.0000 0.0000
vt 0.0000 0.0000 0.0000
vt 1.0000 0.0000 0.0000
vt 1.0000 1.0000 0.0000
# 4 texture coords

o GlassR
g GlassR
usemtl wire_154185229
s 1
f 89/173/67 90/174/68 91/175/68 92/176/67 
f 93/173/69 94/176/69 95/175/70 96/174/70 
# 2 polygons

